/* XPM */
static char *_cfbd72cf32a42ced5b0adf45e2ec123XSHhDP9ghArJXRJE[] = {
/* columns rows colors chars-per-pixel */
"85 85 255 2 ",
"   c #010002",
".  c #060008",
"X  c #180008",
"o  c #01021C",
"O  c #070218",
"+  c #180217",
"@  c gray12",
"#  c #380002",
"$  c #29011A",
"%  c #370219",
"&  c #260002",
"*  c #020224",
"=  c #070529",
"-  c #190325",
";  c #03132D",
":  c #041838",
">  c #151936",
",  c #110D30",
"<  c #280526",
"1  c #380428",
"2  c #301434",
"3  c #05223D",
"4  c #17223C",
"5  c #26273C",
"6  c #353238",
"7  c #480207",
"8  c #570006",
"9  c #4C011C",
"0  c #460118",
"q  c #570216",
"w  c #670005",
"e  c #780103",
"r  c #6A0118",
"t  c #790216",
"y  c #480527",
"u  c #570325",
"i  c #481A3A",
"p  c #4F1530",
"a  c #670225",
"s  c #720F2D",
"d  c #4D2939",
"f  c #762C34",
"g  c #011A42",
"h  c #2E1943",
"j  c #002B45",
"k  c #042648",
"l  c #1A2645",
"z  c #1A344A",
"x  c #013858",
"c  c #153956",
"v  c #03304E",
"b  c #272A44",
"n  c #29364B",
"m  c #36354C",
"M  c #243D53",
"N  c #383C53",
"B  c #3B2B48",
"V  c #003C63",
"C  c #353F62",
"Z  c #4F314B",
"A  c #6D354D",
"S  c #5B234D",
"D  c #1A435A",
"F  c #0C4259",
"G  c #2E4859",
"H  c #014668",
"J  c #004B72",
"K  c #005578",
"L  c #12536B",
"P  c #29526C",
"I  c #31536C",
"U  c #346A74",
"Y  c #18647D",
"T  c #4C4C4C",
"R  c #434545",
"E  c #545454",
"W  c #5C5C5C",
"Q  c #4C4A56",
"!  c #6F4E56",
"~  c #484C62",
"^  c #585869",
"/  c #4A566B",
"(  c #715468",
")  c #526C76",
"_  c #646464",
"`  c #6C6C6C",
"'  c #676468",
"]  c #676675",
"[  c #747474",
"{  c #7C7C7C",
"}  c #79737A",
"|  c #776C72",
" . c #8C0001",
".. c #870007",
"X. c #930001",
"o. c #9B0108",
"O. c #87021A",
"+. c #990116",
"@. c #9C1318",
"#. c #A40002",
"$. c #AC0101",
"%. c #A7020B",
"&. c #B60003",
"*. c #A60417",
"=. c #B70518",
"-. c #B31316",
";. c #AD2916",
":. c #8D0E2A",
">. c #AA0625",
",. c #AE152A",
"<. c #8C2F37",
"1. c #B02E2C",
"2. c #C90104",
"3. c #D80304",
"4. c #C80416",
"5. c #D80414",
"6. c #D31716",
"7. c #E70405",
"8. c #FE0301",
"9. c #F60908",
"0. c #FE1303",
"q. c #FE1A0A",
"w. c #EA0616",
"e. c #FA0812",
"r. c #FC1715",
"t. c #E91413",
"y. c #D82B0D",
"u. c #FF2204",
"i. c #FE280A",
"p. c #FF3808",
"a. c #FE2313",
"s. c #FE2819",
"d. c #FE3619",
"f. c #EA2711",
"g. c #C91224",
"h. c #E51B22",
"j. c #CD302A",
"k. c #E82A27",
"l. c #FA2A27",
"z. c #FE3728",
"x. c #FB3836",
"c. c #EF2D30",
"v. c #9E513C",
"b. c #FF4619",
"n. c #FF4C0D",
"m. c #FF4627",
"M. c #FC4737",
"N. c #FF5B3A",
"B. c #F9552E",
"V. c #FF6639",
"C. c #FF6A33",
"Z. c #E76429",
"A. c #8F3446",
"S. c #B43148",
"D. c #B35055",
"F. c #955568",
"G. c #8D7277",
"H. c #AD7070",
"J. c #9E4D5A",
"K. c #D25354",
"L. c #FB4645",
"P. c #FD5847",
"I. c #FA5B54",
"U. c #F05551",
"Y. c #FF6846",
"T. c #FF7548",
"R. c #FA6E55",
"E. c #F55D62",
"W. c #CD6D72",
"Q. c #F77677",
"!. c #F36C6E",
"~. c #D95F55",
"^. c #AD827C",
"/. c #FF8557",
"(. c #FC8D70",
"). c #FEAD77",
"_. c #307384",
"`. c #005E83",
"'. c #517684",
"]. c #697A86",
"[. c #767985",
"{. c #686D81",
"}. c #867B85",
"|. c #937C89",
" X c #A47680",
".X c #F67B83",
"XX c #D07A82",
"oX c #5B8695",
"OX c #7B838A",
"+X c #768D95",
"@X c #79959C",
"#X c #698792",
"$X c #7999A4",
"%X c #6B94A4",
"&X c #699BAE",
"*X c #1A8E90",
"=X c #838383",
"-X c #8C8C8C",
";X c #85858A",
":X c #988788",
">X c #888A93",
",X c #958A93",
"<X c #8A9398",
"1X c #949494",
"2X c #9C9C9C",
"3X c #94969B",
"4X c #AB8D93",
"5X c #B29293",
"6X c #9B9DA3",
"7X c #9999A4",
"8X c #8892A5",
"9X c #A49CA5",
"0X c #99A3A6",
"qX c #8FAAB2",
"wX c #A3A3A4",
"eX c #ABABAB",
"rX c #A7A7A9",
"tX c #A9ADB3",
"yX c #B6ABB2",
"uX c #ADB4B6",
"iX c #B3B3B3",
"pX c #BBBBBC",
"aX c #B6B7B9",
"sX c #B1A9A9",
"dX c #A5A297",
"fX c #CF9192",
"gX c #FA918C",
"hX c #D6A997",
"jX c #FDB191",
"kX c #CAAEB1",
"lX c #EAB3AE",
"zX c #C29DA5",
"xX c #C9C2BB",
"cX c #F5CCAD",
"vX c #FFD3AA",
"bX c #B9BDC2",
"nX c #A4BAC1",
"mX c #C4BCC1",
"MX c #E2BFC1",
"NX c #BBC4C5",
"BX c #C3C3C3",
"VX c #CBCBCB",
"CX c #C6C8CA",
"ZX c #CAD5D6",
"AX c #D4D4D4",
"SX c #DBDBDB",
"DX c #D2DFDE",
"FX c #D3CFCF",
"GX c #E4D6C1",
"HX c #D5EDF0",
"JX c #E5E5E5",
"KX c white",
"LX c #F4F4F4",
"PX c #EAF6ED",
"IX c #FAF0DA",
/* pixels */
"=X-X-X-X=X-XwXwXiX2X_ -XeXwXwX2X-X-X-X{ [ ' _ -X2XwXeXeXeX=X{ 1X1XeXwX[ { wX-XW ` { -X1X2X2XeXVX1XE wXBXeXeX-X[ 2XeX{ ' _ [ eXeX2XwXBXeX[ -XiXiXVXwX[ -XwX{ W [ [ 2XiX2X1X",
"-X-X1X1X-X-X2X2XeX1X_ =XwX2X2X1X-X-X-X=X{ [ [ 1X2X2XwXeXwX{ { -X1XwX2X[ { 2X-X' [ =X-X1X1X2XeXpX-XW 2XpXwXwX=X[ 2XwX{ ` ` { wXwX2XwXaXwX[ -XeXeXaX2X[ -X2X{ _ [ [ 2XeX2X1X",
"aXBXaXiXiXwX[ { -X{ _ _ E ' { [ ` { =XwXpXiXiXwXwX-X=X1X1X' _ _ ' =X=XW _ [ =XwXwXeX1X` -X2X=X[ [ [ =X-X` E [ { =X=X[ [ 2X2X[ { wX2X=X{ { [ _ _ W _ [ ` [ [ ` { { -X1X1X1X",
"iXBXBXpXiXwX` [ -X=X{ [ ' [ =X{ { =X=XwXBXpXpXrX2X=X{ -X-X{ { [ { -X-X[ [ ` =XeXeXiX2X=X-X-X{ [ { -X-X1X{ ` =X-X=X{ =X-XeXeX{ { 1X-X{ { -X=X{ [ W _ ` [ [ { =X-X1X-X-X-X1X",
"1X2XVXVXeX2X' [ { 2XVXBXVXaXiXeXeX2X=X2XeXpXVXwX1X[ _ ` { pXVXpXaXaXpXVXaX_ =XiXpXVXVXSX2XR { -XeXBXBXBXVXAXeX1X-X-XeXaXVXBXaXwX_ [ -X2XpXpXVXiX1X=XW =X1XiXVXBXVX2X{ { [ ",
"1X1XVXBX2X1X' [ =X2XBXBXVXaXwXeXiXwX-X2XwXaXVX2X-X[ ' [ =XaXBXaXiXeXiXVXaX=X1XeXiXBXpXBX1XE { =X2XiXiXBXBXBXeXwX-X=XwXiXBXBXeX2X_ [ =X2XiXaXBXiX1X-X{ -X-XeXBXpXBX2X=X{ [ ",
"{ =XBXpX' _ ' =XwXwX1XiXJXeX_ 2XVXiXeX2X=XeXBX{ W ` [ 1XwX2XwXeXwX` { BXBXVXaX1X1X2X=X_ [ { ` W [ { 1XeX-X` iXAX-X' -X3XaXiX{ [ [ [ ' { 2XwXwXwX2XeXVX2X_ =X1XwXiX2X1X{ ' ",
";X-XiXeX=X=X{ =X1X1X-XwXBXwX` 2XBXeXwX1X=XwXiX-X=X{ { -X1X2X2XwX2X[ { aXaXBXiX-X-X-X{ _ { -X=X{ { [ 1XwX-X{ eXVX-X` =X-XwX2X{ { =X=X{ =X1X1X2X2X2XeXBX2X' =X1X2XeX1X-X{ [ ",
"wXwX_ [ AXVXeX-XE _ [ ' W { 1X2XwX2X-X1X2X{ _ pXSXeX1X' W { { ` ` -X1XwXwXwX1XW _ _ ' _ 1XaXiXBX-XE [ [ -X2XwXeX-X{ } [ ' ` [ =XeXwXwX1X[ { =X=X{ 1XaX2X{ -X1X-X=X=X{ =X-X",
"1X1X[ =XxXpXiX1XW ` =X{ { =X-X-X2X-X=X-X-X{ ` iXVXeXwX[ ' -X-X-X-X=X=X1X2X3X-X[ [ _ [ { 2XiXiXBX2X=X-X-X2XuX2X3X=X{ =X{ ' ` { -XuXeXiXwX{ -X1X2X2X2XeX1X[ =X-X=X=X-X=X1X3X",
"W _ 2XwX-XeXDXaX` -XwXwXpX1XW [ =X[ _ ` [ =X-X1X2XBXVX-X=XeXeXVXBX_ W =X=X[ { 9X-X' -XwXeXaXpXpXAXJXBXiXBXAX1X` ` ' -X1X` [ -X2XCXBXVXNX1XeXBXVXJXiX[ { ` { tXsX,X2XwXeXiX",
"{ { 1X1XOXF.Q.hXxXVXZXbX0X1X3XeXrX1X{ { { =X=X-X1XiXaX-X{ wXeXaXiX=X=X{ { =X-XiX2X` 1XeXwXwXeXiXaXpXiXwXpXVX1X[ { { wXwX[ { 2XwXeXiXVXFXeX2XaXaXCXuXnXrX5XW.Q.W.9X2XwXwXwX",
"wX2X=X{ OX2 7 %.k.c.L.R.H.|.<X%X'.].0XaXwX=X} { { wXeX{ [ rXeX2XwXBXaX_ ` 1XeXSXaX=XrXVX2X_ 1XiX-X` 1XwXpXAX1X' -X2XAXAX{ -XAXVXiX0X+X].oXqXuXwX,XW.!.L.6.-.t ( tXwXiX1X-X",
"iXeX{ [ -XG j : < q  .&.t.l.E.gX(.H.| ) oX%X+X<X<X1X1X{ } 1X1X3X2XeXeX{ -XiXiXBXeX{ 1XwX1X=X1X2X=X[ =X=X1XwX1X-XwXtXtX7X@X$XoX'.) |  XG.Q.(.I.x.c.2.e 8 y 4 D #XrX2XrX1X-X",
"VXBX[ _ { [ v J H x H l y p #  .4.L.P.U.Q.Q.W.gXhXOX,X|.].#X+X8XqXqXqXqXqXqXqXqX8X+X+X#X@X$X$X@X@X$X@X@XqXqXtX$X<X4X,X] H.W.K.E.U.M.l.l.3.$. .8 < 5 x x J P I 3X{ 1XwX2X1X",
"pXiX{ ` { -Xd - G n H H `.K v n , O %  .#.#.&.3.q.x.x.x.L.K.E.E.E.!.!..XgXgXgX.X.XQ.Q.Q.Q.!.!.!.Q.Q.Q.!.!.E.E.!.x.r.x.M.7.2.#.X.X.X.r $ , k k J K x P c V N ( 2X[ -X1X-X-X",
"iXiX{ ` [ =XrXi O > k 3 z G I U H x c v x g > < % q % q w 8 w e e e e .. . . . . .X.o.#.o.X. . . ...e e w w 8 w t u y u p i g k V x H H H K v G z l l > > Z =X' _ [ { { { ",
"2X2X{ { 1X1X1XrX| u $ = - > j k l n 5 H L c L L H K J V K J V J J J J x V H H H H x V H H H H J V V K J J K x x `.J J J H H x F Y L x j k l j : = = + u ^ 2X` 2XiX-X=X{ { ",
"=X{ { =XeXwX=XwXSX9Xn <.h.7 O + O O ; j F x j v c M l z P D D P L L P D I I P I P P P P P I P P I M D G G I M c D c c c j x v z z x k - - * * % O.r , G.} [ [ BXJXwX{ { [ ",
"1X1X{ =X2X2X1X2XwX1XOXv.V.c.9.2.9 u y < * = ; : : : : : 3 3 : j j j j j M c c c c D D F D F x x c v j j j j j j k g g : : > , O O = 1 a a O.*.g.9.w OX=X{ -X2XeXiXeXwX=X[ ",
"1X2X{ { 2X2X2X1X{ { =XOX) jXs.0.t.4.4.+.+.=.+.O.r u u u y u u < < y 1 , ; > > > 3 4 > 4 : > > > ; 2 1 < = 1 y 9 9 9 9 9 r t +.*.*.=.=.=.t.w.e.q.q #X[ { ` 1XiXwX2XiXBX-X' ",
"iXaXwX3X=X=X=X=X=X-X2X-XoX(.p.i.b.b.d.r.e.r.r.q.i.a.a.s.a.e.w.t.4.=.4.4.+.o.%...o...o.%...o.%.%.&.*.*.=.=.4.w.r.r.9.9.q.a.r.e.e.e.q.a.p.p.d.q.8.! 2X{ -X1XeXVXwX-X1X1X2X2X",
"BXVXpXwX' ' [ [ { 1XiX1XOXH.;.&.#.2.i.i.0.0.a.f.7.3.6.y.p.q.q.i.q.4.4.9.7.3.9.5.w.w.w.w.w.5.3.3.7.3.#.2.8.8.0.0.3.3.3.6.f.f.t.7.7.7.3.2.$.#.X.-.sX1XOX1X2XpXSX2X{ { [ wXiX",
"VXVX-X-X2XwXpXeX[ { { 1XrX1X'.I / 5   % 0 X # 1.H.gXU.o.t 7     X         . X $ < $ $ < $   . < Z A Z A A d # t 1.fXI.&.+.8 . ( 4X:X}.] ^ ^ / >X{ ;X-XwXiXpXVX1X` -X-XiXBX",
"VXVX{ { iXBXJXaX` [ _ 1XBXeX9X1X` wXuXuXbX@X! a.N.hXM.4.2.8 H U U ].#X#X$XnX$X3 o * * o O G 0X0X3XOXrXNXaXbX].4.i.lXK.#.3.e G -XVXBXVXiX` [ [ [ _ { 1XeXVXBXBX-XW -X1XBXAX",
"eXeX_ ` wXeXBXpXVXwXE =XeXeXpXwX-X2X2X2XwX=X' ! X 7 $ O + 4XKXKXKXKXKXKXKXKXKX[.. i G.+ = BXpXBX-XR -X2XaXAX1XG.X X $ < . ! eXeXwXeXBXeX{ { ` 1XVXeX=X1X1X1X2X=X[ 2XiXwXwX",
"2X2XE _ 2XwXiXBXJXiX6 { 2XeXVXeX2X1X-X-X-X[ W _.4Xx.&.8 5 HXKXKXKXKXKXKXKXKXKX) . f ;X% Z CXBXSX-X5 =X3XpXSX1X) ~ z.7.r o OXaXiX1XwXBXeX^.=X' 2XLXpX=X=X[ =X-X=X{ eXBX2X-X",
"{ [ ' { eXeXwXiXVXwXW -XaXiXpXeX1X2X2X=X{ ].I n vXT.7.t + '.NXFXKXKXKXKXKXKXKXM X <.=X7 Z uXiXBX-XW 2XpXeXiX3X5 :X).a.+.+ M >X0XwXwXwXwX1X2XiXeXiX2X{ -X2X2XwX-X=X1X2X1X1X",
"` _ [ =XeXeX2XwXpXwX_ 1XBXaXpXuX6X0XwX=XD ! M.<.cXC.7.a 7 z.! L HXHXHXHXHXHXnX; X <.=Xq - 0XeXpX6X{ eXBX0X) !.&.} ).d.O.+ o.U.1XwX2X3X2X1XwXBXiX2X1X{ -XwXwXeX1X-X-X-X-X-X",
"2X2XwX2X=X=X2X2X2X-X[ =X6X9X7X8X8X8X8X>X&XA 2.A.GX/.3.a q $.d %X7XkXyXkXkXyX9X) $ 1.H.q i 2XkXkXkXyXyX9X%X`... .$X(.8.>.$ ..X.].=X-X;X-X-X1XeX2X1X{ ` { { wXpXwX2X1X1X=X{ ",
"wXeXeXwX[ { 1X1X-X;X{ { 3XfXR.M.z.z.M.M.V.k.e S cXY.w.O.% r j.P.m.z.m.z.m.m.N.N.a.t.f.f.z.x.z.b.z.z.m.z.M.L.,.7 G.(.0.*.$ 0 *.j.M.c.k.c.k.k.l.h.G.{ ' [ ` wXBXeX2X1X-X{ [ ",
"eXiXBXaX2X-X[ [ [ 1XiXeXNXjXN.p.i.i.u.i.u.r.9.A GXN.e.t q r.q.u.u.0.u.u.u.i.a.i.d.b.s.d.d.q.q.p.i.q.q.q.u.0.a.&.}.vXl.+.- O.q.u.i.7.8.0.0.0.0.s.H.{ ` [ { -X2X-X=X{ [ { { ",
"eXiXBXpXwX1X' [ [ 1XiXiXNXlX!.L.x.l.s.a.9.8.8.f PXY.7.a 7 7.8.3.8.0.q.q.r.s.l.z.z.z.z.z.z.z.z.z.z.k.h.a.q.9.8.#.8XjXq.=.< r 8.7.5.k.l.c.x.x.x.P.5X=X' [ { -X1X=X[ [ ` =X-X",
"=X-XVXBXwX1XW [ 1X3X1XeXVXaXkXfXfXfX5XfXH.D.t d LXY.3.+.+ p <.<.A.D.D.W.W.fXfXfXfXfXfXfXfXfXfXfXfXfX5XXXW.H.D.% 2XY.0.4.0 $ <.A.H.kXlXfX5X4X4XzXFXwXE ' ' =X1X{ [ [ ' eXaX",
"=X-XiXiXeX2X[ { -X1X2XwXiXwX-X0XiX2X=X1X2XeXiX@XvXm.7.%.Z tXuXuXuXuXaXZXZXNXZXDXJXPXPXPXHXDXDXDXZXAXAXZXZXCXZXqXdX(.s.4.9 ].} -XiXiXVXiX` { -X2XVXwX{ { ' =X2X{ [ { { wXiX",
"wXwX[ { BXaX2X1X{ -XeX1X' =X2X2XeX2X-X1X-X{ ' ZX).p.w.+.}.2XwX2X3X` { eXeX2X2X2X1X[ eXAXrX[.-X=X2XeX1X=X{ ' wXNXfXcXz...y 3X1X2XiXeXwX1X[ -XpXiX2XwXaX2X` =X1X=X[ -X2X1X1X",
"1X1X=X-XiXiXiX2X[ -X2X1X-X1X2X2X2X1X=X=X;X=X{ CXIXN.2.>.}.1X2X2X2X1X1XwX2X1X1X1X-X{ 2XpXeX2X1X{ 1X2X1X1X1X-X2XtXhXjXl.%.s <X=X-XeXeXwX1X[ =XwXwXwXwXeX1X[ 1XeX=X` -X-X1X2X",
"_ [ 2XwX2XwXSXiX_ [ [ 2XVXeX-X-X{ ` E ' ` -X2XmXIXR.5.,.|.{ =X1X2XBXpX-X[.[ [ ' { 1X2X2XiXAXwX{ =X} 2XiXiXBX1X3XZX!.9.5.s OX' { eXwX1X-X` [ { -XeX2X-X1X-XiXAX-X_ { { 2XeX",
"=X=X1X1X1XwXVXeX` =X-X2XeXeXeX2X=X=X[ { OX=X-XAX(.z.k.S.,X-X-X-X2XBXaX=X{ { =X{ =X-X-X-XwXpX2X{ -X-X2XwXiXBX-X<XMXI.r.4.s 2X` [ 1X-X-X=X=X{ ` =X2X-X=X-X=XeXVX1X{ { [ -X1X",
"wX2X=X=X-X1XiXwX{ 1XiXwX-XiXSXaX1X2X2X1X3XOX[ ZX(.s.z.S.7X2X2X=X1XAXBX` ' { =X-X=X{ { [ -XwX-X{ 2XiX2X1XaXFX=XOXGXlXl.5.:.pX[ _ W W _ [ 2X=XE _ { [ [ [ ` wXBXeX2X{ ' _ E ",
"eXeX{ { -X-X2X1X{ =X2X1X-X2XpXwX-X2XeXwX2X{ ` NX(.s.z.S.,X1X1X1X1XaXiX=X=X2X2XwX1X[ { { =X-X=X[ -X2X1X1XeXaX-X3XcX(.z.t.t rX[ [ { =X-X1XiX2X` [ ` { -X=X[ wXBXwX2X{ ` =X-X",
"BXaX[ ' =X{ _ _ ` ` ` { -X-X-X-X=XeXAXeX2X[ W uXR.i.s.,.|.=X1XeXeX1X1X2XeXVXVXCXwX' { -X` R E E _ _ ^.1X1X2X6XuXhXz.b.r.w 3X[ =XwXiXBXBXAXaX{ [ R { eX1X[ eXVXeX2X{ ' iXVX",
"BXpX[ ' { =X-X-X-X=X[ { =X=X-X-X-XeXBXiXiX=X` rXT.0.h.>.| =X=X-X1X-X1X1XwXaXaXVXwX_ { { =X1X-X-XOX[ { =X-X1X2XqXfXm.d.w.e ;X{ =X1XwXBXpXVXiX2X-XW { 2X2X2X2XwX1X-X=X{ 2XeX",
"AXVX[ _ _ { pXiXwX1X=X[ W ' ' { 1XeXBXBXSXwX[ G.M.u.r.*.( { ` W W _ [ 2XwXeXiXSXeXE ' E wXJXVXBXwX-X[ E ` [ 1X0XW.d.s.w.8 T 1X1X[ 1XAXVXBXBXVXwXT [ -XeXJX1XE _ E -X2X=X{ ",
"iXeX[ [ -X1XwXeXpXwX` =X2X1X2X2XiXbX$XoXoX'.U x ;.p.a.+.A =X[ =X-X2X2X-X1XwXwXiX2X` { { 2XiXaXBX1X` =X;X3XwX1X+XH.d.i. .z _.Y oX$X8X8XrXiXeX2X2X1X1X-X2XeX1X=X=X=X=X=X-X-X",
"-X-X{ -XiXeX-XeXJXiXT 2XSXBXBXeX[.i A.A d p S b *.p.s.*.p ].;XrXbXSXVX[ } 1X-X-X-X-X1X2X1X-XeXAX1XR 2XBXaXpX<XG wXN.8...B ( s s p 9 2 7X2X-XT -XAXiX-X=X[ -X2X2XeX[ R =X2X",
"-X=X{ =XeXwX-XwXAXeX_ -XeXiXVXeX1X( & X X & . G.R.n.s.+.$ x G ) 3XCXBX{ { -X-X=X=X{ -X2X1X-XwXBX-X_ 2XbX8X/ G g 5XB.q.4.9 $ # X X X |.-X-X-X` 1XVXeX-X=X[ 2XiXeXiX-X[ =X=X",
"[ ` { =XwX2X=X2XVXwX' =X=XeXJXaX1X2XI ,.8 > P ,X/.i.5.>.$ : b Z ( mXBX` [ -X=X' [ { -XwX1X{ 2XiX-X[ -XmX,X/ m : fXN.h.4.q n ) @.& G -X{ { { { 2XAXiX-X=XW eXSXBXBXwX1X[ _ ",
"1X2X=X=X2X2X1X1X1X-X=X-X=XwXBXiXaX2XwX(.$.i U ,XY.7.4.>.< p q = [.aXaXwX1X[ =XwX2X=X-X-X-X-X-X-X-X-X=X1XG.<.$ = hXN.4.5.q z xXjX .( { { =X=X[ 1XBXwX-X=X` 2XiXiXaX2X-X{ [ ",
"wXeX-X=X1X1XwX-X_ { 2X-X[ 1XiXpXSX6X0XvX$.i _.:XT.i.w.+.B ).3.9 -XeXiXVXeXE { BXeX-X=X` =X1X{ ' -X2X=X[ kXE.O.3 H.i.i.w.8 z pX). .! [ { -X=X` -XpXwX=X=X` -X1XeXaX1X=X[ ` ",
"aXaX-X-X2X2XiX2X[ =X-X-X1X1X2X2X2XOX_.jX2.i J E C.0.6.r Z jX6.a -XeXeX1X1X2XeXVXiX-X1X1XwXaX2X=X-X=X1X2XxXQ...o H.d.3.w 7 : rXB.#.h { [ ` =XwX2X2X1X=X1XwXeXiX2X-XwXwXeXiX",
"VXBX1X1X2XwXpXeX[ =X=X1XeX1X=X{ ;XsX] ;.k.+ b >X} p = q p W O.s [.wX2X[ -XBXBXAXaX-X2XwXiXAXeX-X-X[ 2XiXkXK.< x H.A.v x }.{.:XV.e / [ ` T { BXeX{ -X-XwXBXBXBX1X' eXpXVXAX",
"eXeX[ [ 2XwXpXaXaX2XW =X2XwXaXwX0X(.j.;.6.+ s U.!.A * y s 2 $ A.|.VXBX[ { wXwXiX2X' -X2XiXVXpXBX-XR 1XeXhX<.F.5Xv.S.J.jXjX~. XY.8 H.iXeX{ -XwXwXiX2X{ -X2X2X2X-X[ 2XwXpXVX",
"wXwXW ' 2XwXpXBXAXwXR { 2XeXVXeX0XI.o.;.g.+ 0 #.2.+.y t y t u A.4XAXVX[ [ 1X1XwX-XW =XwXiXVXBXSX-X6 -XeXhX<.Z./.z.z.n.C.C.y. XT.8 t lXpX-X1X2XeXBXwX[ =X-X-X-X=X[ 1XwXpXVX",
"=X{ _ [ eXeXeXiXVXeX_ -XiXiXBXeX1X5X< ;.g.< < 0 9 y $ O.< 9 p J.9XbXiX{ =X2X-X[ [ [ -X2XwXiXiXpX-XW 2XaXfX1.1.C.1.=.y.f.7. .:XY.w i kXeX[ 1XiXiXBXwX` -XeX=XW [ { 2XwXwXeX",
"{ [ ` { eXeXwXeXAXeX_ 1XaXiXpXeX1X3X%X(.%.i K ! f o = * , , p F.tXiXeX=X=X2X-XW ` { -X1X2XwXeXiX-X_ 2XaXfXK.= * $ O o * O g wXV. .>XpXeX[ -XiXiXVXwX_ -XiX{ E [ { 1XwX2X2X",
"2XwX2X1X=X-XwXwXeX1XW [ =X=X1X=X[ [ BXR.X.i U ^.M.% = - 2 <.@.F.1X' ` =X{ W [ eX2X1X=X` -XwX3X1X} E ^.1XzXI.1 o j.-.y < $ l eXV.o.3XwX1X' { -X-X-X{ ' [ [ 3XiX1X-X;X=X1X1X",
"wXeXwX2X{ =X2X2XwX-X' [ [ { =X{ ` [ aXY.#.i ) G.V.e 1 9 p j.g.F.-XE W =X{ T [ aXeXwX-X' -XwX1X-X[ E [ =X5XY.r + K.d.:.u w l wXV.o.1X2X-X[ { -X=X[ [ ' ` ' 2XBXwX1X=X{ -X1X",
"iXaXBXiX-X=X{ { ` 1XBXeX2X1X=X{ W -XtXT.&.h ) { R.-.u 9 p j.,.F.iX[ ' E ' 2XwXpXaXiXpXVXwX[ -X1X{ _ _ W 5XI.t O v.d.g.:.7 z dXC.%.}.[ 1XVXaX2X1X=X[ T { 2XeXpXpXBXwX3X1X-X",
"iXaXVXpX1X=X` ` _ 1XAXaXwX1X{ { ' -XeXT.&.h ) G.P.-.a t p j.@.A iX=X[ W [ wXeXpXpXpXBXAXwX' =X1XOX{ ` _ 5XI.r O j.b.6.>.7 z wXV.$.}.' 1XSXBXwX2X=X{ W =X2XiXpXBXVXeX2X-X=X",
"2XeXVXVXwX1X_ [ =X1XwXiXVXeX=X2XiX1XwX(.$.p P G.N.2.u r 2 1.*.A wXVXVXBXaX-X1XiXaXVXiXeX-X_ [ ' wXBXiXiXkXP.t + f.d.*.>.q b eXM.#.} { =X2XwXVXiX[ 2XBXwX[ 2XiXaXBXeXwX[ _ ",
"2XwXVXBXwX1X_ [ -X1X2XeXVXeX=X2XpX1X9X).-.y P G.B.3.y r p j.*.s rXBXVXAXBX-X1XeXiXVXeX2X=X' [ ` wXCXmXNXhXL.s + d.s.*.=.q b tXT.#.} =X-X1XwXVXiX{ wXAXwX' 2XiXiXBXwX2X[ W ",
"=X-XBXaX` ' ' =XwXwXeXwXwXwX1XwXiXrX0X).$.y U ` p.7.y 7 p f t a <X` { BXBXpXiX2XwXaX1X' { [ -X1X2XwXaXVX5XU.1 . f.8.&.e # m sXV.#.;X2XwXiXeX2X2X1XeXAXwX[ 1XwXeXiX=X' [ [ ",
"=X-XeXeX=X=X{ -X2XwXeXwX1X2X1XwXeX@XI /.-.$ I ] ^.J.$ - 1 y 9 s ~ { { iXiXiXeX1X2XiX2X{ =X=X-X1X1X1XeXBX4XK.Q ^ T J.! ] M k :XV.o.}.1X2XeXwX1X1X1XwXBX2X` -X1X2XwX-X{ =X=X",
"1X1X' =XAXVXwX1X[ -XeX1X[ =X1X2XrXfX<.y.j.X f W.W.D.% u u +.q s A 9XwX2X1X[ { =X-X1XeXVXiXeX-X' { =X1XwX4XD.~.R.S.K.E.gXgXA.G.T.e | [ { -X1X2X3X1X-X1X{ E [ { -X1XeXaXeXeX",
"-X1X[ =XBXpXwX3X[ -XwX1X=X1X2X2X0Xz.7.j.j.- 7 $.&...0 O.9 0 % s Z tXeX1X-X{ =X-X-X-XwXiXeXeX-X` =X-X1X2X5XW.j.i.7.8.8.p.n.y.G.T.w F.[ G.-X1X2X2XwX1X=X{ [ { { -X1XwXeXwXwX",
"{ { -X1X1X2XiXwX[ =X-X2XeXwXwX1X-X3.X.;.j.- 8 +.O.u % O.< * y s -XaXiX=X{ ;X=X{ { =X=X[ 1XiX1X{ 2XeX2X-XkXW.Z s -.=.%.i.n.y.G.Y.t A.G.=X-X1XwXeXAXwXT -XiX1X{ =X=X=X=X1X2X",
"-X=X=X-X1X2XeX2X[ =X-X1XwXeXaXwX-X} , y.6.2 m 9 9 * * * > 1.O.s 1XeXeX=X;X1X1X1X-X{ { { -X2X-X[ -X2X1X-XlX!.2 * < - = = 0 q :XY.X.1 ` =X-X1X2XwXaXwX[ 2XpX2X{ =X{ =X=X-X-X",
"2X1X{ { 1X1X2X1X[ =X1X2X1XiXJXaX1XwXOXB.#.Z *X1.-.- 1 * 2 k.+.p =XwXwX-X1XwXwXeX2X[ { =X[ W _ W [ =X1X3XlXI.p , h.4.9 = o x sXN. .Z _ [ 1X1X1X1X-X2XiXiXVXwX=X=X{ =X-X_ R ",
"wX1X{ [ =X-X1X-X{ =X-X-X-X2XeXwX-XwX6XY.#.2 F D.k.t y * s g.O.p 2X-X-X1X2XeXeXpXwX` { [ -X2X1X1X-X=X=X=XfXM.y + d.r.=.- 1 , 4XY.e Z -X-X=X=X=X=X-X1X2XiXVXiXwX=X[ { { 1XwX",
"eX3X` _ _ ' { [ ` [ =X{ _ ' _ { =XeX,XY.#.2 M v.m.5.u y p ,.*.2 6X_ ' 2XeXpXBXSXiXW [ _ wXSXBXaX3X^.[ ' H.l.q o k.s.5.1 1 o ^.Y.e Z eX2X[ ` W ' [ =X1XiXJXVXVX-X_ _ W VXLX",
"wX2X[ [ 1X1X1X2XeX2X[ -XwX2X-X1X-X>X{ T.&.< ; f d.=.r u O + y , ~ >XiXCXBXVXFXFXbXeXwX7X7X7X6XrX7X;X[./ Z s - o j.i.5.q % O :XT. .< tXeX{ { 1X1X1X1X-X2XeXeXiX-X` =X-XiXBX",
"eXiX[ =XaXiXeXpXJXaXE 2XSXiX2X=X5   ' V.o.O   % 4.o.0 $ o o * = > N {.6XuXuX7X[.] ^ N ~ ^ ~ N N N m > = = = o o @.7.+.% O   | N.e +   o 4 [ 1X2XiX2X-X{ _ -XeX-X[ 2XeXwXwX",
"1X-X[ =XeXwX-XwXAXeX{ eX2X^ Q 5 > b m Z 5 n N l m ~ ~ I ~ ~ ~ ~ ~ ^ [.>X>XOX[.] ^ N G / ].] ~ ~ ^ ~ G G n b b ; l l l l : l B B 5 5 5 > , b 5 ' 1X3X{ =X1X-X=X;X=X2XwX2X3X",
"' W [ =XwX2X' -XAXeX[ 1X2XaXaX6X6X7X>X@X<X6XrXtXuX0X3XtXuXaXaXtXaXbXpX9XwXtX6X;X;X[.>X>X;X[.6X2X3X>X7X6X;X<X-X] ].+X].] OX3X<X<XOX>XrX<X>X-X1XiXJXeXR =XiX[ 6 { -X2XeX-X=X",
"1X1X{ =XwX2X-X1X2X1X=X-X=XwXVXaXaX1X_ 1XwXwXwXeXiX{ ' -X1X2X2X2X2XiXiXwX3X{ -X2X1X=X-X2X1X-X-X1X=X[ -X3XwXeXwXwX1X;X-X-X{ { 1X1X1X1X1X1X1X1X-XwXVXiX-X-X=X-X2X-X=X1X2X-X-X",
"wXeX{ { 2XwXeX1XW [ 1X=X` 2XBXBXSX2XR -XiX2X1X2X2X[ _ =X-X-X1XwXwX1XwXSXpXE { BXeX{ -X-X1XwX=X_ { { =X-X1X1XBXSX=XW wXwX[ ` =X-XiX2XE ` 1X-X{ 2XBXpXVX2XR 2XVX1X{ -X1X1X-X",
"iXaX2X1X=X-X-X-X{ =X1X-X[ 1XeXwXeX1X{ wXBXiXeX-X=X-X1X1X1X=X=X=X=X2X2XwX2X{ 1XVXiX-X=X{ =X=X{ [ -X2X-X=X-X=X-X1X-X-XeXiX1X-X{ { 1X-X[ =X1X-X[ -XiX2X-X-X=XeXVXwX-X-X=X=X=X",
"VXVXiXwX_ _ ` [ { -XwX-XW { 2X-X=X1X1XaXSXVXVX{ W 2XeXwX2X` _ W _ 1X1X{ { =X2XSXBX2X=XW _ _ _ W 3XBX-X[ [ _ _ W -XwXaXBXiXeX_ _ [ } =X-X2X-X_ { 2X=XW =XwXaXAXiXwX{ W ` ` ",
"aXiX-X-XwXwXiXwX-X=X[ -XwX1X-X-X[ 1XeXiXBXeX2X-X{ eXiXwXwX1X1XwXwX{ { -X2XeXiXAXiX{ =X[ 3XeXeXaX1X} { [ -X1X=X[ 2XiXBXpX=X{ -X1XiXrX=X=X{ =X-X-X-X=X[ 1XeXiXBX2X=X2XwXeXeX",
"iXeX' { VXVXSXpX-X{ T -XAXwX[ { W 1XBXaXpX1X[ -X-XiXpXeXwXeXeXAXBXW _ 1XeXVXVXAXeX_ { { iXSXSXLX1X@ ' [ 3XeX-X{ iXBXAXCXW _ wXiXSXBX=X{ W { eX1X` { { 2XBXiXaX-X' iXVXVXAX",
"1X1X_ [ wXeXpXaXpX2X_ =XwXwXiX2X[ -X2X1X1X{ ' 1XwXiXaXeXwX-X1XiXiXwXwX=X-XwXwXeX1X' -XwX2X2XwXeXwX2X=X[ 2XaX-X' 1X2XwX2X_ ' 1X2XaXiXiX2X` =XwXrXiX1X` -XwX-X{ { [ 2XeXeXeX",
"{ { W ' 1XwXiXpXSXeX_ =X-XwXAXeX=X-X=X{ { ' W 2XiXiXiXeXeX=X=XwXeXBXpX{ { -X=X-X=X' 1XaX2X{ -X=XeXBX1X` wXBX=X_ =X-X=X{ _ _ -X3XeXeXVXiX[ -XwXeXVXwX' =X1X` E ` [ 1XwX2X2X",
"[ ' _ { eXeX1X2XpX2XW -XeXeXiX2X=X=XG.{ [ ` ` ;X1X-X-XwXwX[ } 2X2XwX2X[ ` [ { 2X2X2X1X-X=X{ { [ { { -X1X3XwX[ E ` [ [ [ -X-X[ { 1X1X1X=X` [ =X{ ` [ { { { 1XwX1X1X=X[ -X-X",
"' W ' { eXeX=X1XiX2XW -XiXeXeX2X-X=X{ [ [ [ ` { =X{ { 2X2X[ [ 1X2X2X2X` ' ' { 2XwXeX3X=X{ [ [ ' ' _ =X2X1X1X' T _ ' _ ` 1X1X' [ -X=X{ [ ' ` [ ' R _ =X{ ` 1XiX2X2X{ _ =X-X"
};
