/* XPM */
static char *b78d18bc78ec4c74f3efaff44dc4b436UMhHyEWcoHHxv8GI[] = {
/* columns rows colors chars-per-pixel */
"85 85 168 2 ",
"   c gray12",
".  c #2A2A2A",
"X  c #2F2F2F",
"o  c #393939",
"O  c #3F3F3F",
"+  c gray26",
"@  c #444444",
"#  c #464646",
"$  c #484848",
"%  c #494949",
"&  c #4B4B4B",
"*  c #4C4C4C",
"=  c gray30",
"-  c gray31",
";  c #505050",
":  c #515151",
">  c gray32",
",  c #535353",
"<  c #555555",
"1  c #565656",
"2  c gray34",
"3  c #585858",
"4  c gray35",
"5  c #5A5A5A",
"6  c gray36",
"7  c #5D5D5D",
"8  c gray37",
"9  c #5F5F5F",
"0  c #606060",
"q  c gray38",
"w  c #626262",
"e  c #646464",
"r  c #656565",
"t  c gray40",
"y  c #676767",
"u  c #686868",
"i  c DimGray",
"p  c #6A6A6A",
"a  c gray42",
"s  c #6C6C6C",
"d  c #6D6D6D",
"f  c gray43",
"g  c #6F6F6F",
"h  c gray44",
"j  c #717171",
"k  c #727272",
"l  c gray45",
"z  c #747474",
"x  c gray46",
"c  c #767676",
"v  c #777777",
"b  c gray47",
"n  c #797979",
"m  c gray48",
"M  c #7B7B7B",
"N  c #7C7C7C",
"B  c gray49",
"V  c #7E7E7E",
"C  c gray50",
"Z  c #808080",
"A  c #818181",
"S  c gray51",
"D  c #838383",
"F  c #848484",
"G  c gray52",
"H  c #868686",
"J  c gray53",
"K  c #888888",
"L  c #898989",
"P  c gray54",
"I  c #8B8B8B",
"U  c gray55",
"Y  c #8D8D8D",
"T  c #8E8E8E",
"R  c gray56",
"E  c #909090",
"W  c gray57",
"Q  c #929292",
"!  c #939393",
"~  c gray58",
"^  c #959595",
"/  c gray59",
"(  c #979797",
")  c #989898",
"_  c gray60",
"`  c #9A9A9A",
"'  c #9B9B9B",
"]  c gray61",
"[  c #9D9D9D",
"{  c gray62",
"}  c #9F9F9F",
"|  c #A0A0A0",
" . c gray63",
".. c #A2A2A2",
"X. c gray64",
"o. c #A4A4A4",
"O. c #A5A5A5",
"+. c gray65",
"@. c #A7A7A7",
"#. c gray66",
"$. c #A9A9A9",
"%. c #AAAAAA",
"&. c gray67",
"*. c #ACACAC",
"=. c gray68",
"-. c #AEAEAE",
";. c #AFAFAF",
":. c gray69",
">. c #B1B1B1",
",. c #B2B2B2",
"<. c gray70",
"1. c #B4B4B4",
"2. c gray71",
"3. c #B6B6B6",
"4. c #B7B7B7",
"5. c gray72",
"6. c #B9B9B9",
"7. c gray73",
"8. c #BBBBBB",
"9. c #BCBCBC",
"0. c gray74",
"q. c gray",
"w. c gray75",
"e. c #C0C0C0",
"r. c #C1C1C1",
"t. c gray76",
"y. c #C3C3C3",
"u. c gray77",
"i. c #C5C5C5",
"p. c #C6C6C6",
"a. c gray78",
"s. c #C8C8C8",
"d. c gray79",
"f. c #CACACA",
"g. c #CBCBCB",
"h. c gray80",
"j. c #CDCDCD",
"k. c #CECECE",
"l. c gray81",
"z. c #D0D0D0",
"x. c gray82",
"c. c #D2D2D2",
"v. c LightGray",
"b. c gray83",
"n. c #D5D5D5",
"m. c gray84",
"M. c #D7D7D7",
"N. c #D8D8D8",
"B. c gray85",
"V. c #DADADA",
"C. c gray86",
"Z. c gainsboro",
"A. c #DDDDDD",
"S. c gray87",
"D. c #DFDFDF",
"F. c gray88",
"G. c #E1E1E1",
"H. c #E2E2E2",
"J. c gray89",
"K. c #E4E4E4",
"L. c #E6E6E6",
"P. c #E7E7E7",
"I. c gray91",
"U. c #E9E9E9",
"Y. c gray92",
"T. c #EFEFEF",
"R. c #F1F1F1",
"E. c #F6F6F6",
/* pixels */
"S P R R J R  .o.2.' y P %. .o.' R R R C k u y R '  .%.*.%.S C W ^ %. .c C  .R 9 d C P ^ ' { *.f.W 2  .t.*.%.P k { %.m u y k *.*.' o.t.*.c R 2.2.f.o.k R o.C 9 k k { ,.{ ^ ",
"P R ^ ^ R R ' { *.^ y J  .{ { ^ P R R J C c k R ' {  .%.o.C m R W o.{ k m ' R u c J P W ^ { %.q.R 9 { 6.o. .J c ' o.m d d m o.o.'  .6.o.c R %.%.6.{ k P { C w k c { *.{ ^ ",
"6.u.6.2.,.o.k m R C y w ; u C c d C J o.q.2.,.o. .R S ^ W u w w u J S 9 w c J o.o.%.W d P { J c c c S P d 2 c S S S k c { ' k m  .' S C m k y y 4 y k d k k d m C P W ^ ^ ",
"2.t.t.q.,.o.d c P S C c u c J C m S J o.t.q.q.o.{ J m R R C m c m R P c c d S *.*.2.{ S P R C k C P R W C d S P S C S P *.%.m C ^ R m C P S m k 9 y d k c C J R W R R R W ",
"^ { k.f.%.{ u k m { f.u.f.6.,.*.%.' S { %.q.k.o.^ c y d m q.f.q.6.6.q.k.6.y S ,.q.k.f.C.' $ C P %.t.t.u.f.v.%.W R P *.6.f.u.6.o.w k P { q.q.f.2.W S 9 S ^ ,.f.u.f.' C C c ",
"W ^ f.u.{ ^ u c S { t.t.k.6.o.*.,. .R {  .6.f.{ R c u c S 6.t.6.2.*.,.k.6.S W %.,.t.q.u.W ; m S { ,.2.t.t.t.*. .R S o.,.u.t.*.{ y k J ' 2.6.u.,.^ R C P R %.t.q.u.' S m k ",
"C S u.q.y y u S o. .^ ,.F.*.9 { k.2.%.' S *.u.C 9 d c ^  .{  .*.o.d m t.t.f.6.W ^ { J y c C d 4 c C ^ %.P d ,.v.P u P ^ 6.,.C c k k u C {  .o.o.{ *.f.{ w J W o.,.' ^ m u ",
"J P ,.*.J S C J ^ W R  .u. .d ' t.*. .^ J  .,.R S C C R W ^ '  .' k C 6.6.t.,.P P R C y C R S m m c W  .P m *.f.P d S R o.{ m C S S m J ^ ^ { { ' %.u.{ u J W { %.^ R C c ",
" . .w c n.f.%.R ; w k u 4 m ^ ' o.' R W ^ C y q.C.%.^ u 9 m m d d P W  . .o.W 4 w y u y ^ 6.2.u.P ; k c R { o.%.R C c k u u c J %.o.o.^ c m S S C ^ 6.{ m R W P J S m J R ",
"W ^ k S t.6.,.^ 4 d S C m S P R ' R J P R C d ,.f.*. .k u P P P P J J ^ ' ^ R k k y c C ' 2.2.t.{ S R P  .,.{ ' J m S C u d C R *.*.,. .C P ^ ' { { %.W c J R J S P J W ' ",
"9 w {  .J ^ u.*.d R o.o.q.^ 9 c J k y k k S R ^ ' t.f.R J %.*.f.t.w 9 S S k C { R u P  .*.6.6.6.v.K.u.,.u.n.W d d u R W d c R { u.u.k.q.^ %.t.f.K.2.d k w d c m c ' o.*.2.",
"C C W ^ P ^ 6.o.c R o. .%.' J J S S C C m S J R W ,.6.P C o.%.6.,.J S m C S R ,.' d W %.o.o.*.2.6.q.,.o.q.k.W k m C o.o.k m { o.*.,.q.*.J { 6.6.k.%.c S m R { P C { o.o.o.",
"o.{ S C S R *. .S W *.' m { f. .c W o.W S C c m C  .%.m c o.*.{  .u.6.w d ^ %.A.6.S %.k.' y W ,.P d W  .6.v.W u R { v.v.C S u.2.d C  .R 9 S 6.%.{ R d R { u.K.*.R o.,.^ P ",
",.%.C c S J ' W C J W W W ^ o.^ m { 2. .' S k C C W ^ m c W ^ ' { *.%.C R ,.,.t.%.m W o.W J W ' J c S J ^  .W P  .*.q.2.C S *.%.P R ' P u m ^ R S W { o.*.2.t.' C { %.^ R ",
"u.t.c y C C k k d d u J o.R k S C *.C.q.2.J 9 C J k u w w c m W ^ ^ ' o.,.C.u.o.W d k y P %.P m k u 2 + $ # R *.6.t.%.{ P P ^ ' %.{ R C w 9 = 4 ; ^ A.u.t.%.{ J d W  .' ^ ",
"q.2.m d C S R W { R k P o.^ R R J o.t.2.2.R d S S R W ^ ^ C m P R ' ' ^  .q.,.R P C C c J W J c R ' P J k 9 R  .6.t.{ R S S R R W R C J ' R c c d W 6.6.f.o.P S k P W R R ",
"2.2.m d k J %.,.f.%.k R o. .{ ^ J { %.,.q.' S C m %.6.f.u.m d c C W W W ^ %.^ d m P C d c C c 9 %.n.q.q.J 2 R { u.n.P u y u c m S C 9 P n.2.P J c P ^ 2.U.{ 2 u y c m m C ",
"{ ' C m W ^ ^ o.f.%.u R %.%.2.o.R ' { {  .P m R W ' { q.q.S m P W 2.,.J P { R u J %.o.%.P u J R  .,.,.6.%.{ W J { o.S C %.o.P S d m J ' t.2.*.o.W ^ ^ { %.P d { ,.R S C m ",
"S C m J *.o.J  .A.,.9 R ,.6.k.,.W W R R P C c ' o.R R t.t.P J ^  .n.f.c c W J 2 R f.u.n.{ ; W *. .{ 2.u.u.v.W d c c k J C.v.W S 4 k { %.q.u.n.t.%.{ ^ J d c k t.U. .C C k ",
"W ^ C S { ' ^ ' o.^ c P W o.q.,.2.{ C R W R P ^ ' ^ ^ o.o.R R R ' 6.2.^ R C S P ^ o.*.t.^ w P '  .%.o.o.2.t.{ R S m R W {  .*.{ y c ^ ' o.o.%.,.u.%.J J m R { %.2.%.o.J k ",
"^ ' m C ' { { W C S S S m ' 2.6.v. .u J W ^ ^ ' { ' ' ^ ^ W W R ^ ,.,.*.{ u m  .' P o.u.W 9 S W  .2.{ R ,.u.%. .m u ^ ' c S u.,.y c ' ^ W ^ W *.F.,.c C d ^ ,. .' 2.u.P u ",
",.6.o.^ S S J J S R { R c P { {  .^ S  .6.,.,.J c J P P P W R S S W W P P J ^ t.,.o.' P ^  .' ^ ^ ^ J m W { ^ W W W ,.2.^ W W R S C C S C J R ' 2.{ C R W *.f.{ P W W ' { ",
"t.f.q.o.u u k c C W ,.^ y m P J J P J *.k.t.u.m ; k m m m ^ ^ m c k k c C R o.n.t.2.W 2 ^ t.o.^ P S k w m C P R '  .t.t.{ ^ c c P S u d k m P R { W C ^ { q.A.{ m m k  .,.",
"f.f.R P { o.q.%.c C C W %.{ { W C ' ,.2.t.o.W  .o.2.2.^ P c k k m o. .m P 2.6.k.2.J { %.2.f.%.W P k W  .o.%.P c %.q.u.q.S m C R ,.*.,.{ k m C C C P P  .2.q.f.W d P R 2.u.",
"k.f.m C 2.t.F.6.d c w W u.*.{ W d o.f.q.u.' c ,.u.v.v.{ R y 9 y m 6.,.c R f.f.v.,.d o.f.u.n.*.R S u { 6.,.6.P u 2.k.v.u.c d c R f.u.k.,.d k c c y C W %.f.t.u.P 9 P W t.n.",
"%.%.y d  .*.t.q.f. .; S %.%.6.o.R ' { '  .S u ' %.6.t.u.q.k u R ' u.6.c C  . .*.^ u W %.2.f.q.u.P # P  .6.v.R u P W o.o.k m o.%.o.%.t.*.m C d W k.*.J W W ^ { J k { ,.o. .",
"{ { 2 w { o.2.u.U.,.O m { %.f.*.' ^ R R R c 9 W  .2.q.n.v.c d ' o.k.t.c c W ^ { P w J { ,.f.u.C.P . S ^ q.A.W y k k W ^ k C 6.2.^  .t.*.S S u { R.q.S J c S P S m %.t.' P ",
"C c u m %.*.o.*.f.o.9 R 6.2.q.*.^ ' { S u u w ^ %.o.%.6.2.C c W ' ,.%.m S  .^ d d w S '  .%.,.t.R 4 { q.*.*.J y R { S c d k W '  . .o. .W { ,.*.2.{ C R ' {  .R J ^ ' ^ W ",
"d y k S *.*.{ o.q. .y ^ t.2.6.%.^ ' { C 4 y y ^ o.{  .*.%.C m R ^ o.{ m S o.R 4 y u S ^ ^ { o.2.R u o.t.o.{ C y ^ o.c d k c S R  .{ ^ ' ^ o.u.,.' W m R  . .%.^ R R P R R ",
"' {  .{ S J { ' ' R c S R P P S m m k ^ ,.%.*.C y R ^ ^ W c k C S ^ W c c u C *.%.%.W d P { '  .S u S J W { C u m C ^ o.6.,.P J J S m C S R  .' P C d m m  .q.o.{ ^ W S m ",
"o.*.*. .c C ^ W R J C C S C m c k c y ' t.6.q.m 4 P W R P c c C S W R c k 9 C q.2.2.^ u J ^ ^ ' S k m m R { C u k c { *.u.q.P S C m k c C J ' R S m u k d  .t.%.{ ^ R C c ",
"*.2.t.2.' R k c c W ,.%.,.{ J C d S J o.q.t.f.%. .C d S R ,.2.2.*.J m d c S ^ q.6.6.2.6.' k S C { ,.%.%.^ J C c c c W ' o.{ c k c C R P m C J m d k d c C R { P S m c C S ",
"%.,.u.q. .W u k c W 2.,.q.o.S J C P P o.2.t.f.,.%.c y S R 6.t.t.2.P J J P P ' q.q.q.6.t.' u C m { 2.*.2.' J R R m k P W ' W k c S R  .^ c m m C J m u c m J ^ S c k d J R ",
"S P f.u. .W 9 k ^ ^ ^ %.f.%.C ' 2.' C ' o.q.k. .W k y J R %.*.*.,.,.2.f.q.W { 6.q.f.*.^ J y C J W ^ %.2.*.o.t.v.J 9 d k S S u S ,.2.n.2.d c d ^ C. .2 u u S ^ C c k u %.6.",
"J R ,.2.*.{ c C R ^ '  .2. .P { ,.' S ^ ' %.2.o. .J m S P o.%.%.%.o.%.t.6.^ { ,.,.2.*.o.R k S J W '  .%. .' 6.k.J w C S C C c R ,.2.f.,.d C P { k.o.m m u J ^ C k m m o.,.",
" .o.k C t.6.{ ^ m R *.W u J { { *.{ R R R m u ,.f. .W c c {  .{ ^ d m %.%.{ { { ^ k o.v.o.C P S ' *.W S m u  .q.S u { { c m W { ,.*.o.^ k R q.,.' o.6.' d J ^ S k R { ^ ^ ",
"W ^ S P ,.,.,.{ c P { ^ R W ' ' { W S J J S C %.6.%.o.C c ^ ' ' ' W ^  .{ W W ^ R C { q.%.' W C W { ^ W W R { o.P C *.,.m c S R *.%.{ ^ k J o. . . .%.^ c ^ *.J d P R ^ ' ",
"y k {  .' o.C.2.y c c ' f.%.R P m d 2 u d P { { o.f.k.R m C J W { u.q.P C c k u C ^ ' { 2.n.o.m S m { ,.2.t.W k W  .C.C.k u u m %.o.^ P d c m P *.' P W R 2.n.R y C m ' %.",
"J J W ^ ^  .f.*.d S R ' *.%.%.' J S c C S J P W ' 2.6.P C P R R ' t.6.S C C S C S P R R o.q.' m R R { o.,.t.R d P W u.u.' W d c W R P J J C d S ' R J P J *.k.^ m C c P W ",
"o.{ S S R ^ 2.o.C ^ ,. .P ,.A.6.^ { ' ^ ^ S k C S '  .P J ' ' J W v.u.u u C J R J m m k P  .R m { 2.{ W 2.k.J 2 c C { ,.n.f.c y 4 9 w k { J ; y m c k c d  .u.%.{ C u w 2 ",
"*.%.C m P R { ^ m J ^ W P { q.o.R { *. .' C u S P R R m m W ^ W ^ 6.,.S J { { o.W c m C S R S k P ' ^ W %.6.R m C C  .*.q.2.c k C J R ^ ,.' d k d m P S c o.u.o.' C d J R ",
"t.6.c u S m w y d d d m P P R R S *.n.*.' c ; S W y 2 = ; J W %.%.^ ^ ' %.f.f.u.o.u C R d $ ; ; w y S W ^ ' { o.C d o.*.%.{ k S o.,.t.u.n.6.C c $ m %.W k %.k.%.{ C u 2.k.",
"t.q.c u m S R R R J c C S J P R P %.u.2.,.J y C S P R R R S S R W R W ^  .6.6.f.o.y m m J ^ R R S c C S R W ' { ' ^ ' ' ^ W C J W  .t.q.f.2.' P 4 m ' ' { { o.W P S C { %.",
"v.f.k w w C q.,. .^ J c 9 u u C W %.t.u.C. .c u 9 2.v.k.t.C d w 9 y k { o.*.2.A.*.2 u ; o.K.f.u.o.P k ; d c W  .u.v.J u 4 y W W c ^ n.k.t.t.f.o.= c R *.F.^ ; w 2 P { J m ",
",.*.c c R ^ o.%.q. .d J ' ^ ' ^ R { %.%.2.^ C J J  .*.q.6.S c J R { { R W  .o.2.{ d m m { 2.6.u.^ k J P ^  .^ R  .%.P J ' ^ S S S W ,.,.,.%.' ' ^ W R ' *.^ S J J S S P P ",
"P P m P 2.*.R %.K.2.= ' C.u.t.%.P P J P P P P o.,.R P q.t.S C *.2.n.f.c m W R P P P W { ^ P *.n.W $ { t.u.v.^ k C C S ^ n.f.u d W R J R { P = P n.,.R J k R { { %.d $ J ' ",
"P J m J %.o.R  .v.%.y R %.,.k.*.^ ^ R R J J S ' o.W R 2.2.J J ' o.f.q.m m R P S S C R { ^ P o.t.R y R { *.t.R k S S  .,.f.q.P S C C P P R P d W k.*.R J k { 2.*.,.R c S S ",
"c d m J  .{ S ' f.o.u S S *.K.6.^ ' ' S u c m ' o.R R ,.,.P P W ' f.t.d k R S u k m R o.W m ' ,.R k S S  .6.J y c C t.n.f.t.o.^ w d S C m C m ' n.,.R J 9 %.C.u.u.o.^ c y ",
"^ ' J J ' ' ^ ^ ^ R J P S  .t.2.6.{ c W { ^ ^ W W ^ ^ R R R R R ^ 6.2. .^ c J o.' J P P R R R R R P J C ^  .{ { J m o.,.6.2.^ R c m m C S S c W u.o.P J d ' ,.,.6.' R C k ",
"o.*.P J W ^ { R y m ' R c ^ ,.q.A.{ = ^ 6.%.o.P m W ^ u u W ^ J R *.,.f.*.2 C u.*.R J d S W C u P { S k S J *.u.R d R ' 2.,.R J m c k m R J d R q. .J S d P ^ %.6.^ S c d ",
"2.6.R R ' { ,.{ c S P R ^ ^ ' ' ' ' W %.t.o.^ ^ ^ *.,.R J S S S P %.%.^ ^ { %.f.,.P W W  .6.{ J P J W ' { o.^ R { o.6.2.R R { o.2. .k c d S  .{ { ^ J ^  .%.2.{ R  .o.%.,.",
"f.u.^ W { o.q.%.c S S W *.^ S C u ^ 2.6.k.o.R {  .q.t.{ W k k C J o.{ k P u.u.n.6.P {  .2.n.%.R P c { ,.*.2.J y %.u.v.f.u k %.6.A.q.d d = C t.%.C P P o.u.t.u.W u %.q.f.n.",
"*.*.k c ' o.q.6.6.' 4 S { o.6.o.R W ^ { %.P k ^  .6.t.6.,.S m R ' f.t.c C  . .,.' u R { ,.f.q.t.P $ W *.q.k.R u R ^ %.o.y u { %.t.q.2.%.C R o.o.,.{ C R ' ' { P c ' o.q.f.",
"o. .9 u ' o.q.t.n.o.# m ' %.k.*.W ^ R ^ ' m y ^ o.6.t.u.t.J C ^ o.n.f.k c ^ ^ o.R 4 J  .2.f.u.n.P X R *.t.A.W w C J ^ ^ 9 y ' o.q.t.v.q.R ^ { %.t. .c J P P R C c ^  .q.f.",
"S C y c %.*.%.,.k.%.w R 2.,.t.*.^ ^ ' P C d w ^  .o.*.6.2.S C '  .q.2.C S ' R k c k P ' o.,.,.q.R 9 { 6.*.,.J u W { P C d c  .o.o.*.t.*.c W ,.,.u.o.u R %.S 9 c m ' o.o.%.",
"m k d C *.*. .*.v.%.w W 6.2.q.%.^ ^ ^ S d u y W {  .o.2.2.S m '  .2.*.S J ' P 9 d m P ^ { o.%.2.R y { 6.%.o.S u ^  .S c c C {  .{ o.q.%.k R ,.,.f. .y R ,.C ; c C ^ o.{ { ",
"{  .' W J R  .o.*.W 9 c S J W J c c k c k S P C m '  .W P d u m c u d S C 4 c *.{ ^ J d R o.^ ^ m 2 S W { %.S k c m { o.^ R c S  .{ o.^ u m R P P C u k k ^ ,.^ P J S W ^ ",
"o.*.o.{ m S { {  .R u k c m J m d d u c C R ^ m k ^ { J C d d c k ; 4 S m = c 6.*. .P u P { W R k ; c S ^ o.S d k k o.*. .^ d m { ' ' R k m P S c k u d y { u. .W J m R W ",
"2.6.t.2.R J C m d W u.*.{ R S m 9 J { *.t.q.q.' R C c m S ,.2.2.*.k y 2 u '  .q.6.2.q.f. .c P ^ m y y 9 d c 9 $ P  .,.6.6.2. .' C C k W k.6.{ ^ J k = m { *.q.q.u.o.^ W P ",
"2.6.f.q.W J d k y ^ n.6.o.^ C m u R  .2.k.f.f.o.' m u m S 6.t.t.2.S c 9 k o.%.q.q.q.u.n.o.u S R S m d w d k y 4 R o.,.6.t.t.*.{ c c u W C.t.o.' J m 9 S { *.q.u.k.*.{ R S ",
"{ %.k.f.o.^ w k J W o.,.k.*.S ' ,.W y ^ ,.t.k.v.v.m 2 S R %.,.,.2.f.f.u.6.P ^ ,.6.f.2.%.R w k u  .u.2.2.6.q.u.k.^ c { %.k.f.%.^ 9 y C J ' o.k.,.c { u. .k { 2.6.u.*. .c w ",
"' o.f.u. .W w k R ^ { *.f.*.J { 6.^ y W %.6.f.f.k.m 4 S P o.%.%.,.u.f.v.t.R ^ *.,.f.*.' J y c d o.f.q.t.q.6.k.A.^ k ^ o.k.u. .R 4 u J P W o.k.,.m o.n.o.u ' ,.2.t.o.' c 9 ",
"S R t.6.d u u S o.o.*.o. . .^  .2.%.o.{ R o.,.P c C m y u W ' o.{ d m t.t.q.2.{ o.6.^ u m c P ^ {  .6.k.R 2 *.n.' C S R u.6.c d u m { o.2.%.' ' W *.v.o.k ^ o.%.,.S u c k ",
"J R *.%.S S m P {  .*. .^ ' ^  .*.o.o.W S W ' m d J R S S P R { ' k C 2.2.,.%.^ { ,.' C J J P W ^ ^ *.u.J ;  .t.R m S P 2.*.S S J P ^ { *.o.W ^ ^ o.t.{ d P ^ { o.P m S S ",
"^ ^ u S n.f. .W c R %.W k J ^ ' o.^ R d ; w w k m { ,.f.u.C k R ^ %.o.' W c C J R W *.f.,.%.R u C S W  .S d P ^ k y J R S R 2.6.q.%.k C R W ' ^ W R W m ; k C R ^ *.6.%.%.",
"R W k J u.q.o.^ c P  .^ S W { ' { W P S c k u S P { %.t.q.S c R ^ *.%.W R m S P R R  .2.%.%.R d J R W ' R J P P C m R R S P *.,.2.o.c C P W { {  .^ S C k m C R W  .*.o.o.",
"m C R W ^ { 2. .c S R ' %.o.o.^ S J m o.k.{ C %.,.^ R o.%.P P ^ { 6.,.S C J J C C S S c W ,.^ C { *.^ P *.u.J w ^ o.W P P P P ^ ,.o.C J R ^  .*.v. .= P 2.W m S S J J ^ { ",
"P J J P ^ ' %.' c S R ^  .%.6. .P W R %.f. .J  .%.^ R  . .J S R ^ *.%.J J ^ W ^ P m C m P ' P c R { ^ R %.q.R k  .,.o.{ S S J R { ^ m S R ^ '  .6. .c ' q.' C S C J J P P ",
"{ W C C W ^ { W c J W ' ^ 2.F.6.^  . .2.k.%.^  .o.^ W { { d u k m  . .P W  . .*.' k m S k 9 y 9 c J W ^ *.t.^ S ,.u.q.,.c k P S d d y c ^ ^ W W R { ,.2.f. .S S m S P w $ ",
" .^ m c J P W P m S P P P ' *. .R o.2.%.%.^ P R W R R J J W W ' ^ R R W ' %.*.q. .d m c R { ^ W P S J J ^ o.' W 2.u.f.6.u y m S ' ^ R P J J S J P ^ { ,.k.,. .J k m m ^  .",
"%.^ d y y u m c d c J m y u y m J %.C.o.m m d k k J P w y *.6.2.*.w u { %.6.t.A.,.9 k 9 o.A.t.6.' S k w d d { *.u.v.F.k.4 ; 9 C u.q.*.{ k d 4 u c J W 2.F.f.f.R y y 4 f.T.",
"o.{ k k W ^ W ' *.' k P o.' R W P { ,.^ c ^ o.R J S C C J %.,.q.6.R P R ^ o.%.6.{ d C c ' 2.2.u.^ d P R  .,.^ P  .*.q.2.y y C R %.*.t.%.k C W ^ ^ W R { *.%.,.P d J P ,.t.",
"*.,.c S 6.2.%.6.K.2.2 { A.6.{ ' P R W m 2 *.C.' S m c W ' %.2.C.v.o.' m C W W ' R C J J W ^ 6.F.' ; { 2.f.F.W w c c  . .u d W ' ' *.F.t.y R u.2.%.' R C w R *.P c { *.o.o.",
"W R c S *.o.R  .v.*.d W *.,.t.%.' W J P C  .6.*.*.C u W ' *.,.,.2.q.,.m C ^ W P J m R { ^ P %.u.W w ^ %.6.k.W d R ^ R J c m ' ' P { k.2.C W o.*.u. .k J ^ P J J S ' o.{ ' ",
"u 9 c J o.{ u R n.*.k R W 2.K.t. .^ c R ' {  .k.A.C 9 '  .,.,.R ' F.v.9 u { R 9 d C ^ 6.^ d ' q.R y ^ %.6.f.R w  .,.w ; S P %.{ u J k.6.R ^ ' ,.K.%.o S 2.c O C R { %.R S ",
"W W C S  .{ R ^ { ^ S P J o.k.6.6.^ y W o. . .*.,.m u R ^ { { ' { 2.2. .^ C P { ^ S R { W P R ^ J c R ' o.*. . .W P R P m C W ^ W ^ ^ ^ W W R o.k.,.R R S R ' R S ^ { R P ",
"o.*.m C {  .%.^ 9 c W J d { u.t.C.' + R ,.{ ^ ' { c y J P R W  . .^  .C.q.2 m u.%.C P R ^  .S w m C J R ^ ^ t.C.S 4  .o.k d S R ,.' ; d ^ R m ' u.q.k.{ $ ' f.^ c R ^ W R ",
"2.6.' W J P R P m J ^ P k W *.o.%.^ m o.u.,.*.R S R W ^ ^ J S S J ' {  .' m W f.,.R J m S J m k P { P S P J R ^ R P *.,.^ R m C W R c S ^ R c R ,.{ R R J *.f. .R P S S S ",
"f.k.2. .y w d c C P o.P 9 C ' R J W ^ 6.C.k.k.C 4 { %.o.{ d y 4 w ^ ^ m C S { C.t.{ J 9 y y y 9 ^ t.R k k y w 4 P  .6.t.2.%.y y k c S P { R y m { S 4 J o.6.n.,. .m 9 d d ",
"6.2.P P o.o.,. .P J c P o.^ R P c ^ %.,.u.%.' P C %.2.o. .W ^ o. .C C R ' %.,.n.,.C S c ^ *.*.6.^ c C c P ^ S k { ,.u.q.S C R ^ 2.o.S S m S R R P J k W *.2.t.' S ' o.%.*.",
"2.*.u m f.k.C.q.P C = R v. .c m 9 ^ t.6.q.W k P R ,.q.%.o.%.*.v.u.9 w ^ %.k.k.n.*.y C C ,.A.A.E.W . u c ^ *.R m ,.u.n.u.9 y o.2.A.u.S m 4 m %.^ d m m { t.2.6.R u ,.k.k.n.",
"^ W y k o.*.q.6.q.{ w J  .o.2.' c R ' ^ ^ C u ^  .,.6.*.o.R W ,.,.o. .J R {  .%.^ u P o.{ { o.*. .' J k { 6.J u W {  .' w u ^ { 6.2.,.{ d J o.o.,.^ d R o.R C m k { *.*.*.",
"C C 9 u ^  .2.q.C.*.y S R o.v.%.S J J C m u 9 { ,.2.2.*.%.S S  .%.u.q.C C P J P S u W 6.' C P J %.u.^ d o.t.J w S R S m w y R ^ %.*.u.,.k P o.*.k.o.u S W d ; d c W  .' ' ",
"k u y c %.%.^ { q.{ 9 P *.%.,.{ J J C m c d u J W P R  . .c c ' { o.{ k d k C ' ' { ^ R J m m c m m P W ^ { k 2 d c k c P P k C ^ W W J d c S m d c C C m W  .^ W S c P R ",
"u 9 y m *.%.J ^ 2.' 9 P 2.%.%.' P S m c k k d C J m m { { k k ^ ' { ' d u y m {  .*.^ S m k k u u w J { W ^ u = y u y d ^ W u k R J C c u d c u # w S m d ^ 2.{ { m w S P "
};
