/* XPM */
static char *_9221e683794471edc4c57d00b7a5601ze1NJSNBEOgqYVi2[] = {
/* columns rows colors chars-per-pixel */
"85 85 256 2 ",
"   c #000002",
".  c #00020C",
"X  c #0B0208",
"o  c #000414",
"O  c #000A15",
"+  c #01061B",
"@  c #000B1C",
"#  c #0B071A",
"$  c #17051B",
"%  c #00121E",
"&  c #00151A",
"*  c #191315",
"=  c #260005",
"-  c #390006",
";  c #27041C",
":  c #39031C",
">  c #010C22",
",  c #030828",
"<  c #011324",
"1  c #02152A",
"2  c #011A2C",
"3  c #0B1B2C",
"4  c #091627",
"5  c #121B2D",
"6  c #181628",
"7  c #011B31",
"8  c #081C35",
"9  c #161C32",
"0  c #150727",
"q  c #2A0523",
"w  c #3B0323",
"e  c #350724",
"r  c #38132C",
"t  c #2A1930",
"y  c #04212E",
"u  c #022334",
"i  c #0D2334",
"p  c #00243A",
"a  c #002A3B",
"s  c #0D2739",
"d  c #132434",
"f  c #1C2A3B",
"g  c #172839",
"h  c #0E2937",
"j  c #242B3A",
"k  c #373237",
"l  c #48031C",
"z  c #57021D",
"x  c #4C0007",
"c  c #68011B",
"v  c #7A001C",
"b  c #6D0006",
"n  c #430323",
"m  c #4A0726",
"M  c #570525",
"N  c #49142A",
"B  c #54132D",
"V  c #6B0229",
"C  c #680326",
"Z  c #7C0123",
"A  c #760427",
"S  c #691B38",
"D  c #711431",
"F  c #4D2838",
"G  c #732C3A",
"H  c #5B413B",
"J  c #052A43",
"K  c #1A2D42",
"L  c #053243",
"P  c #163749",
"I  c #242B42",
"U  c #273646",
"Y  c #323947",
"T  c #33324A",
"R  c #4D394C",
"E  c #6E314D",
"W  c #5F1846",
"Q  c #11495A",
"!  c #35424E",
"~  c #384654",
"^  c #2E4C58",
"/  c #395767",
"(  c #15646B",
")  c #4D4D4D",
"_  c #444546",
"`  c #545454",
"'  c #5D5D5D",
"]  c #54535C",
"[  c #494E57",
"{  c #724853",
"}  c #585A65",
"|  c #4B5A69",
" . c #715862",
".. c #58636B",
"X. c #536F76",
"o. c #646464",
"O. c #6C6C6C",
"+. c #65676B",
"@. c #686D74",
"#. c #64747A",
"$. c #747474",
"%. c #7C7C7C",
"&. c #76787D",
"*. c #78666A",
"=. c #8A0008",
"-. c #89001A",
";. c #980219",
":. c #960009",
">. c #A40008",
",. c #B30011",
"<. c #830024",
"1. c #83032A",
"2. c #8A0428",
"3. c #970227",
"4. c #901530",
"5. c #A30224",
"6. c #A3012B",
"7. c #AD012A",
"8. c #A90525",
"9. c #B3022C",
"0. c #BC012C",
"q. c #B70626",
"w. c #BA0635",
"e. c #AE1332",
"r. c #8E2936",
"t. c #AF2A39",
"y. c #AA201A",
"u. c #C7001B",
"i. c #D9001D",
"p. c #CD060E",
"a. c #FD0005",
"s. c #E60219",
"d. c #FB011B",
"f. c #E80006",
"g. c #C4022B",
"h. c #CD012C",
"j. c #CA0023",
"k. c #D3012D",
"l. c #D90126",
"z. c #C90432",
"x. c #D60534",
"c. c #C41435",
"v. c #D51731",
"b. c #E80229",
"n. c #F4032C",
"m. c #FE042C",
"M. c #FB0828",
"N. c #FB142A",
"B. c #FF0433",
"V. c #FB0838",
"C. c #E51737",
"Z. c #FE1434",
"A. c #FE1935",
"S. c #FF143A",
"D. c #FF1B3C",
"F. c #F41236",
"G. c #E80634",
"H. c #D9233B",
"J. c #C72E33",
"K. c #FF233A",
"L. c #FE2738",
"P. c #F52D34",
"I. c #A54E39",
"U. c #CD4E3D",
"Y. c #E45230",
"T. c #952843",
"R. c #B1334B",
"E. c #9E244C",
"W. c #C31E41",
"Q. c #FE1C42",
"!. c #F80540",
"~. c #CF314A",
"^. c #FE2743",
"/. c #FF3646",
"(. c #ED2A4C",
"). c #904653",
"_. c #BE4352",
"`. c #915567",
"'. c #B1506A",
"]. c #956E75",
"[. c #9B6E70",
"{. c #D04B4B",
"}. c #FF444A",
"|. c #FF5948",
" X c #FF4753",
".X c #EE534F",
"XX c #FF6552",
"oX c #D15769",
"OX c #CD6C7A",
"+X c #F16A6F",
"@X c #E26161",
"#X c #9A8675",
"$X c #FF8257",
"%X c #D38C69",
"&X c #FD926D",
"*X c #FFAA75",
"=X c #FFAA6A",
"-X c #E8AD68",
";X c #F2CC7C",
":X c #B2C778",
">X c #727B86",
",X c #8D7583",
"<X c #AE7A87",
"1X c #D17A89",
"2X c #77888C",
"3X c #68919A",
"4X c #838383",
"5X c #8C8C8C",
"6X c #898789",
"7X c #968689",
"8X c #898C92",
"9X c #949494",
"0X c #9C9C9C",
"qX c #959498",
"wX c #8F9295",
"eX c #AD9095",
"rX c #979DA3",
"tX c #A89BA1",
"yX c #96A3A7",
"uX c #A4A4A4",
"iX c #ABABAB",
"pX c #A4A6AA",
"aX c #B3B3B3",
"sX c #BBBBBB",
"dX c #B6B6B9",
"fX c #B1ADAF",
"gX c #A4A19C",
"hX c #D08B92",
"jX c #E39F9A",
"kX c #F0B689",
"lX c #DF96A2",
"zX c #CBB0B6",
"xX c #E2B19C",
"cX c #FFD697",
"vX c #FDCD8B",
"bX c #FFE696",
"nX c #FFF3A9",
"mX c #CED5A1",
"MX c #9ABCC4",
"NX c #D7BDC3",
"BX c #B9DFDE",
"VX c #C3C3C3",
"CX c #CBCBCB",
"ZX c #C1C7CB",
"AX c #C8D5D5",
"SX c #D4D4D4",
"DX c #DBDBDB",
"FX c #D7DEDE",
"GX c #D0D1CE",
"HX c #D7E7E6",
"JX c #CBF5F4",
"KX c #E3E3E3",
"LX c #E8ECEC",
"PX c #F4F9F7",
"IX c #F0F3F2",
"UX c #E8EACD",
/* pixels */
"4X5X5X5X4X5XuXuXaX0X+.5XiXuXuX0X5X5X5X%.$.+.+.5X0XuXiXiXiX4X%.9X9XiXuX$.%.uX5X' O.%.5X9X0X0XiXCX9X` uXVXiXiX5X$.0XiX%.+.+.$.iXiX0XuXVXiX$.5XaXaXCXuX$.5XuX%.' $.$.0XaX0X9X",
"5X5X9X9X5X5X0X0XiX9X+.6XuX0X0X9X5X5X5X6X%.$.$.5X0X0XuXiXuX%.%.5X9XuX0X$.%.0X5X+.$.6X5X9X9X0XiXsX5X' 0XsXuXuX6X$.0XuX%.O.O.%.uXuX0XuXsXuX$.5XiXiXsX0X$.5X0X%.o.$.$.0XiX0X9X",
"sXVXsXaXaXuX$.%.5X%.+.o.) +.%.$.O.%.6XuXsXaXaXuXuX5X4X9X9X+.o.o.+.6X4X' o.$.6XuXuXiX9XO.5X0X6X$.$.$.4X5XO.` $.%.4X4X$.$.0X0X$.%.0XqX4X%.%.$.+.+.' +.O.O.$.$.O.%.%.5X9X9X9X",
"aXVXVXsXaXuXO.$.5X4X%.$.+.$.6X%.%.4X6XuXVXsXsXuX0X6X%.5X5X%.%.$.%.5X5X$.$.O.4XiXiXaX0X4X5X5X%.$.%.5X5X9X%.O.4X5X4X%.4X5XiXiX%.%.9X5X%.%.5X4X%.$.' +.O.$.$.%.6X5X9X5X5X5X9X",
"9X0XCXCXiX0X+.$.%.0XCXVXCXsXaXiXiX0X4X0XiXsXCXuX9X$.+.O.%.sXCXsXsXsXsXGXsX&.~ ! Y Y Y Y Y ~ ^ 8XiXVXVXVXCXSXiX9X5X5XiXsXCXVXsXuXo.$.5X0XsXsXCXaX9X4X' 4X9XaXCXVXCX0X%.%.$.",
"9X9XCXVX0X9X+.$.4X0XVXVXCXsXuXiXaXuX5X0XuXsXCX0X5X$.+.$.4XsXVXsXaX} ..8X2Xg 3 d g g g f g g J | >XwXaXVXVXVXiXuX5X4XuXaXVXVXiX0X+.$.6X0XaXsXVXaX9X5X%.5X5XiXVXsXVX0X4X%.$.",
"%.4XVXsX+.+.+.4XuXuX9XaXKXiX' 0XCXaXiX0X4XiXVX%.' O.$.9XuX0XuXiXqX> >     + i g d I I j g a a 2 + K 6XiX5XO.aXSX5X+.5X9XsXaX%.$.$.$.+.%.0XuXuXuX0XiXCX0Xo.6X9XuXaX0X9X%.+.",
"6X5XaXiX6X4X%.6X9X9X5XuXVXuXO.0XVXiXuX9X6XuXaX5X4X%.%.5X9XqX0X]   O o 4 f g i u g Y U g K I T I K s > qX5X%.iXCX5XO.4X5XuX0X%.%.4X4X%.6X9X9X0X0X0XiXVX0X+.6X9X0XiX9X5X%.$.",
"uXuX' $.SXCXiX5X` o.$.+.' %.9X0XuX0X5X9XqX%.+.sXDXiX9X+.' %.j o o 5 3 d d i < P / f f J T A.D.S L j g > >X0XuXiX5X%.$.$.+.+.$.6XiXuXuX0X$.%.4X4X%.9XsX0X%.5X9X5X6X4X%.6X5X",
"9X9X$.4XVXsXaX9X' O.4X%.%.4X5X5X0X5X6X5X5X%.O.aXCXiXuX$.+.5X4   4 9 g d 2 2 U ^ P a a W Z.A.Z.Z.r.L K 1 Y 8X0XqX6X%.4X%.+.O.].5XiXiXaXuX%.5X9X0X0X0XiX9X$.6X5X6X4X5X6X9X0X",
"' o.0XuX6X9XVXiXO.5XuXuXsX9X' $.6X$.+.$.$.4X5X9X0XVXCX5X5X5X4 @ 5 3 i g K i Q L 1 D W C.m.Z.Z.A.C.J a L 3 + @.O.O.+.5X9XO.$.5X0XVXVXCXsX9XiXVXCXKXaXO.$.o.O.$.%.$.0XuXiXaX",
"%.%.9X9X5X9XsXuX$.5XuXuXiX0X6X6X4X4X%.%.%.4X6X5X9XaXsX5XO.  @ 4 3 d 4 K ^ J 9 7 S B.B.Z.Z.Z.D.D.C.I T j a g 2 } %.%.uXuX$.%.0XuXiXaXsXiX6X0XsXsXCXiX$.4X%.5X0X5X%.0XuXuXuX",
"uX0X4X%.4X5XiXuX4X9XiX0X%.0XCXuX$.9XuX9X4X%.$.%.%.uXiX[ o o 4 4 3 d d d u 7 v.Z.A.A.A.D.S.Z.Z.S.^.^.Q.G a g 7 } 5X0XSXSX%.4XVXdXO.%.uX5X' 4XsXiX0X5XO.5X0XVXKXiX5XuXaX9X5X",
"aXiX%.$.4X6X0X9X%.6X9X9X9X9XuX9X%.0XaXuX0X4X$.%.%.9X9X[   @ 4 4 3 d d u 8 C.A.A.A.x.z.6.M M M 3.x.F.K.D.r.p 2 ~ qXiXsXaX%.4XfXiX5X5X0X5X+.%.9X5X4X9X0XuXiXaXVX0X%.0XiX9X5X",
"CXVX$.+.%.%.$.$.O.O.+.6XuX5X$.4X%.iXDXsXaX6X' %.6X$.$._   @ 4 3 3 d u j c.A.Z.F.q.w q # O @ @ + $ n F.S.D.E a + U iXuX0X5X5X9X0XiX0X5X%.o.' ) ' ` 9XDXVXVXiX0X6XO.9XuX0X9X",
"sXaX%.O.%.4X5X9X0X5X$.5XuX9X5X5X6XuXVXaXaX5XO.4X4X5XrXg   @ 4 3 2 2 7 e.N.A.w.l o + + @ + + + + + # C C.D.D.S a p f 8X5X4X4X5X5X9X5X%.6X0X5X$.$.O.9XsXsXCXuX5X4X$.5X9X5X5X",
"aXaX%.O.$.6XiXaXCXiX$.5XuXuX0X9X6X0XiXaXsX0X4X%.%.iXY @ o @ 4 d 2 , D.L.L.x.q o o A 1.V V V V M V V . C V.L.A.r.a U >XO.+.+.$.%.4X%.} 5XSXaX5X6X$.5X9XaXLX0X` +.+.$.%.%.%.",
"0X0X%.%.9X9X9XuXCXiX+.5XiXiXaXuX5X0X0X0XuX5X%.5X9X0X> o @ @ 5 + ( mXP.Z.e.+ + ; z 2.6.j.l.l.l.b.7.M w o l Z.L.H.t h &.>XiXuX5X4XO.%.6XqXVXaXiXuX9X9X9X0XiX5XO.0XaX5X4X%.%.",
"4X%.%.6XiXuX6XuXDXaX' 5XaXdXCXaX9X9X5X5X5X%.$.0XuX9X+ o @ @ < ; oXbX/.6.$ t D e.7.2.3.u.u.u.u.b.q.A w.N ; z A.Z.4.a $.6XDXSX9X#X` $.0XiXsXVXSXVXiX0X9X6XO.$.$.VXLXuX%.%.$.",
"9X9X%.4X0X0X9X0XuX9X&.5X9XuXsXaXaX0X%.5X9X5X5X9X0X0X+ o @ > + q.Z.M.w.# . |.|.Y.J.3.Z c c c A Z 3.J.J.|.r.. Z B.A.f 8X9X0XgXiX0X+.$.9X0XuXuXiXaXVXiX6X6X%.5X0XiXaXiXuX6X$.",
"9X0X%.%.0X0X0X9X%.4X4X4X%.0XaXsXSXuX+.6X9X9X9X0X0X0X@ o @ @ 2.Z.L.6.$ . . 6 + G XXU.{.{.U.U.U.U..X.X$ O N 1.o e.Z.F.0X0X$.4XVXaX+.$.9X9X9X9X9XiXKXaX$.%.O.9XaXuX0XaXVX5X+.",
"aXsXuX9X4X4X6X6X4X5X0X5X$.5X0XuXjX{ / uXsXaXaX6X$.5X@ o @ @ 7.B.M.# r.I.r.. o + { cXkX*X*X*X*XcX%X; +   z {.O A m.M.`.yX9X9X9X5X4X%.%.#X%.6X5X0XaX0X%.5X9XiXCXgX5X9X9X0X0X",
"VXCXsXuX+.+.O.$.%.9XaX9X+.%.6X`.{.= # 8XCXVXVX%.` %.> o 0 C 0.g.z . Y.=X&XG #   4 #XvXcXvXvXcXkX{     ~ %X$X& o 3.A.F 2X0X9X$.&.5X4X+.O.$.%.5X5X0X9X%.9X0XsXDX0X%.%.$.gXaX",
"CXCX5X5X0XuXsXiX$.%.%.9XiX0X<Xc   $ $ . dXuX9XuXuXaX1 . M n.k.l o $ y.*XnX&X{ > . o xXbXvXvXbXH   + J GXnX$X6 . l A.r.%.4X%.%.5XaXiXaX0X$.%.%.%.%.5X5XuXaXsXCX9XO.6X5XaXVX",
"CXCX%.%.aXVXKXsXO.$.o.9XVXiXgX5X  b.k.  pX0X$.aXVXCX> o n h.h.l o 3.c @XnXvXbX`.  , mXnXvXcXnX)   I UXnX*Xl.$ @ : b.9.[.$.O.$.5XCXVXCXaXO.$.$.$.+.%.9XiXCXVXVX5X' 5X9XVXSX",
"iXiX+.O.uXiXVXsXCXuX` 4XpXiXsXuX@.6 v M.. X.+.0XiXfX@ M 9.9.g.: o 3.1.3.{.&XbXvX-X;XXX^././.^.%X:XmXnX&XB.u.# @ : g.5.<X$.%.pXiXuXiXVXiX%.%.O.9XCXiX6X9X9X9X0X6X$.0XaXuXuX",
"0X0X` o.0XuXaXVXLXaXk %.0XiXCXiX0X' R j.=.B / 9XuXiX@ Z x.9.9.$ # 6.3.v =.P.|.XX&X&XN.s.d.M.d.XX*X&X&XK.d.h.# O : k.:.eX$.%.sXaX9XuXVXiX4X4X+.0XIXsX4X6X$.4X5X4X%.iXVX0X5X",
"%.$.+.%.iXiXuXiXCXuX' 5XsXaXsXiX9X0XqX% V.u.  4XiX0X. A z.0.M < $ 1.3.6.3.-.u.d.d.d.n.n.n.B.B.m.d.d.d.m.n.3.# O : h.>.].O.$.9X0XuXuXuXuX9X0XaXiXaX0X%.5X0X0XuX5X6X9X0X9X9X",
"O.+.$.4XiXiX0XuXsXuX+.9XVXaXsXiX9X0X0X%.h - V.  #.0X. 3.G.0.< < @ @ 2.0.3.3.2.j.m.n.n.n.m.m.m.m.m.m.m.B.g.o @ @ ; g.,.].$.$.4X5XuX0X9X0X9XuXVXaX0X9X%.5XuXuXiX9X5X5X5X5X5X",
"0X0XuX0X4X6X0X0X0X5X$.4X5X5X0XhXoXR.4._.c = X v S ^ < @ 2.V.w.e O @ @ A h.6.3.3.q.m.m.n.n.m.m.m.m.m.B.3.o @ O n 0.G.- 7XsXaX5X6X6X4X%.%.4X5XuX0X6X%.O.%.%.uXsXuX0X9X9X4X%.",
"uXiXiXuX$.%.9X9X5X6X%.%.4X<X@XP.a.4.E E lXtX3XE.l . @ & $ A V.w.w @ O # C 9.0.3.3.b.n.n.m.m.m.m.m.m.3.$ O @ n h.g.; >XiXVXsX5X4X%.%.$.$.%.6X0X5X4X%.+.$.O.uXVXiX0X9X5X%.$.",
"iXaXVXaX0X5X$.$.$.9XaXiXaXQ.s.;.v 7X6XuXsXVXCXR o o ; w # O 2.!.x.; + @ # 1.1.3.9.q.h.b.b.n.n.n.b.5.O @ @ w z.0.l , qX0XuX0X$.$.$.%.5X5X%.%.6X%.O.$.O.$.%.5X0X5X4X%.$.%.%.",
"iXaXVXsXuX9X+.$.$.9XaXaXsX~.p.~.%.5X5XuXaXwX8 + o $ q.n.1.o O 1.V.G.q + @ @ @ m z.6.7.0.j.j.j.b.v O @ @ w k.x.$ o ^.9X9X0X9X$.$.4X5XuX9X$.%.%.%.6X%.+.$.%.6X9X4X$.$.O.6X5X",
"4X5XCXVXuX9X' $.9XqX9XiXCXz.oX0XaX0X%.0XuX5X  + @ o $ M 6.w.@ @ C B.m.A o @ @ @ e 0.h.0.0.g.k.c O @ O M k.x.o z 5.t a #.4X4X+.4XaXaXSXaXO.$.O.9XDXuX` +.+.4X9X%.$.$.+.iXsX",
"6X5XaXaXiX0X$.%.5X9X0XuXaXeXeX0XaX0X4X9X0XiXpX'.3.M O o n 1.2.$ @ C B.B.1.o @ @ @ M M l l z M # O @ M k.0.: z Z m 1 b <X%.%.$.5XaXaXCXaXO.%.5X0XCXuX%.%.+.6X9X%.$.%.%.uXaX",
"uXuX$.%.VXsX0X9X%.5XiX9X+.6X0X0XiX0X5X8X5X%.+.@Xi.0.D 4 & % w.n + + Z Z.A.M @ @ @ @ @ @ o + O @ @ n x.g.: . 3.N u S m.+X$.&.9X0XaXiXuX9X$.5XsXaX0XuXsX0XO.6X9X4X$.5X0X9X9X",
"9X9X4X5XaXaXaX0X$.5X0X9X5X9X0X0X0X9X4X6X6X%.  O : 0.^.S 2 2 2 1 q : o 2.S.D.B + @ @ @ @ @ @ @ @ M x.g.e @ + < 1 D D.B.z P $.4X5XiXiXuX9X$.6XuXuXuXuXiX9X$.9XiX6XO.5X5X9X0X",
"+.$.0XuX0XuXDXaX+.$.$.0XCXiX5X5X%.O.` +.O.6X  o + : M 7X].2 1 {.}.0.# o A K.^.4.o @ @ @ @ @ @ V x.0.r 7 0 n < c.Z.g.B 3 u U +.%.iXuX9X5XO.$.%.5XiX0X5X9X5XaXSX5X+.%.%.0XiX",
"4X6X9X9X9XuXCXiXO.4X5X0XiXiXiX0X6X4X$.%.4X8X. o @ @ @ { R 1 ~./.Z.l + @ @ B K.Q.e.O O @ @ @ V b.0.r p m z./.w B 4.N y u u 2 #.$.9X5X5X6X6X%.O.4X0X5X6X5X6XiXCX9X%.%.$.5X9X",
"uX0X4X%.5X9XaXuX%.9XaXuX5XaXDXsX9X0X0X9X9X[.m o @ % < o t R./.v.: O @ > > o 4.D.D.1.# O > M b.9.r u a n q./.^.t < y 2 2 d T.6X+.' ' ' $.0X4X` +.%.$.$.$.O.uXVXiX0X%.+.o.` ",
"iXpX%.%.5X5X0X9X%.6X9X9X5X0XsXuX5X0XiXuXOXf.b.n > e r 1 t.}.V.w O @ @ 1 1 @ + 4.A.Q.A @ q k.q.r p 9 5 O $ 9. XR.< t r 9 S /.7X$.%.6X5X9XaX0XO.$.O.%.5X4X$.uXVXuX0X%.O.6X5X",
"VXsX$.+.4X%.o.+.O.O.O.%.5X5X5X5X4XiXSXiX1Xl.u.n.Z.S.Q. X/.C.$ + @ @ < 9 5 @ O q w.K.D.D o h.t 7 7 4 i @ o # 6./.|. X X X/.d.].4XuXaXVXVXSXsX%.$.) %.iX9X$.iXCXiX0X%.+.aXCX",
"VXsX$.+.%.4X5X5X5X6X$.%.4X6X5X5X5XiXVXaXaX7X*.R.j.G.V.Q.c.; o @ @ < 1 d f d < o w x.^.c.: B J p 5 d 3 @ @ @ # e.D.S.D.d.C.eX4X4X9XuXVXsXCXaX0X5X' %.0X0X0X0XuX9X5X4X%.0XiX",
"SXCX$.o.o.%.sXaXuX9X6X$.' +.+.%.9XiXVXVXDXuX$.{ - M M V w .   o < < 3 3 d K 8 < + n x.S.c.2 7 f U f 4 @ @ @ @ : v c x T.`.+.9X8X$.9XSXCXVXVXCXuX) $.5XiXKX9X` o.` 5X0X6X%.",
"aXiX$.$.5X9XuXiXsXuXO.6X0X9X0X9X5X0XiXiXaXqX2XU   O @ O   o @.T   < 1 < < i g 3 < < w S.^.N @ 2 I i 2 . . > @ @ O O o [ 0X9X4X4X4X9XaXaXaXiX0X0X9X9X5X0XiX9X4X6X6X4X4X5X5X",
"5X5X%.5XaXiX5XiXKXaX) 0XDXVXVXiX5X5X6X5X5X6X  o @ @ > @ . U VX8Xo @ @ > < > 8 d 9 7 2 C B./.N + @ > @ U ! o @ @ @ @ @ ..SXCX+.O.9X5X6X5X0X5X) 5XSXaX5X6X$.5X0X0XiXO.) 6X0X",
"5X6X%.6XiXuX5XuXSXiX+.5XiXaXCXiX9X9X5X5X6Xg   4 3 4 3 . | HXGXIXuX  o < 5 O d I f d < @ m n.V.C O +   uXiX  o 4 9 5 4 i >XVX5X4X%.%.5X5X5X5XO.9XCXiX5X6X$.0XaXiXaX5X$.4X4X",
"$.O.%.6XuX0X4X0XCXuX+.4X4XiXKXsX9X0X0X4X^ . o + > + <   [ PXKX3Xu o @ < > , , 1 4 < + o + o m $ o o   3XZXdXd . 4 1 2 @ , 8 rX9Xo.O.4X%.%.%.%.0XSXaX5X6X' iXDXVXVXuX9X$.+.",
"9XqX6X6X0X0X9X9X9X5X6X5X4XuXVXaXsX0X$.wX).b c.e.H.t.o ^ pXFXHX`.- V V C A R.~.D o @ r.R.T.G @ B ~.t.t.(.jXJXd   @ < v c.c.6.jXgX$.%.%.%.4X4X$.9XVXuX5X6XO.0XaXaXsX0X5X%.$.",
"uXiX5X6X9X9X0X5X+.%.0X5X$.9XaXsXDX0X) 9X'.i./.L./.K.= dXPXZXJX'.>.0.g.6.c./. Xt.+ n /. X XXX< t. X X Xa. XJX3   > ; i.Z.L.N.+XfX%.$.$.%.5X6XO.5XsXuX6X4XO.5X9XiXsX9X4X$.O.",
"aXsX5X5X0X0XaX0X$.4X5X5X9X9X0X0X0X0X9XiXj o n l C 3.s.lXBXAXLX/   2.1.$ # 2.6.w @ V n.m.B.S.< w 5.<.2.= } LXU o 0 9.h.V @ 4 . 2XaXuX$.$.O.4XuX0X0X9X6X9XuXiXaX0X5XuXuXiXfX",
"CXVX9X9X0XuXsXiX$.4X4X9XiX9X4X%.+.9XpXf O o o o o : p.lXJXAXPX..  + @ m 6.7.g.m @ M g.b.b.l.@ z q.5.9.X Q PXAX{ b z.m + @ @ o < / dXO.O.) %.VXiX%.5X5XuXVXVXVX9X+.iXsXCXSX",
"iXiX$.$.0XuXsXsXsX0X' 4X0XuXsXuX5X9X7Xb 5.8.4.e.- 1 1XNXAXAXHX`.- M @ $ M M m # @ q 6.k.h.7.+ # l l M   ^ LXPXzX[.= . O # c e.3.<.lXhXhX%.5XuXuXaX0X%.5X0X0X0X6X$.0XuXsXCX",
"uXuX' +.0XuXsXVXSXuX_ %.0XiXCXiX9X9XeXd.M.Z.D.Q.=.a JXHXGXAXyXT.;.7.e < 4 O j j @ % A 3.3.Z + + + + @ . T tXGXKXwXf o # N ,.K./.L.M.d.+X5X9X0XpXVXuX$.6X5X5X5X4X$.9XuXsXCX",
"4X%.+.$.iXiXiXaXCXiXo.5XaXaXVXiX9XqX0X  o # t 5   f IXFXHXHX8 . + + @ { ].o ).E & @ + o o o @ Z 5.q + < > s FXLXsX0Xa G *.o < 4 < 1 1 1 > 2XaXaXVXuX+.5XiX4X' $.%.0XuXuXiX",
"%.$.O.%.iXiXuXiXSXiXo.9XsXaXsXiXqX#.r -.P.t.< 2 @ @ 1 dXaXp @ o < 2 1 `.6X@ q.3.% < < < < < y C.m.A L.r.2 2 J MXPXsX6Xo.  + 1 1 + o @ o o J rXaXCXuX+.5XaX%.` $.%.9XuX0X0X",
"0XuX0X9X6X5XuXuXiX9X' $.4X6X9X6X$.Q = m.D.H.< 1   X ).IXpXX A C.t.2 R.{.{ @ q.3.% 1 3 3 3 2 a K.M.e P.G 7 k.,.R.fXPXiXuX|     R %X@X6 . 4.I.eX5X5X%.+.$.$.9XaX9X5X6X4X9X9X",
"uXiXuX0X%.4X0X0XuX5X+.$.$.%.6X%.O.#.E ;.-.m < o j #XnXGX,X-.7.Z.(.F }.t.. @ k.5.% d d d d u a K.v.o L.t.D n.L.=.t ZXdXiXiX| X ).bXvXF x K.=XxX#X$.$.+.O.+.0XVXuX9X6X%.5X9X",
"aXsXVXaX5X6X%.%.O.9XVXiX0X5X4X%.' 6XqX  @ > 6   6X%.cXk   @ @ , F |.V.C O @ l.8.< d s g d u p K.N.o o L.^.2 2 2 @ 1 dXsXsXaXOXJ.;X;XJ.6.{.=X=XxX6X$.) %.0XiXsXsXVXuX9X9X5X",
"aXsXCXsX9X6XO.O.+.9XSXsXuX9X%.%.+.5X9X= v 8.e.e.q.{.UX!   @ @ t.}.F.z o @ @ l.8.% d h d s u a D.N.+ + ; t.}.9 2 < < U 3XFXVXiXeXp.J.>.'.DXH..XfX6X%.' 4X0XaXsXVXCXiX0X5X4X",
"0XiXCXCXuX9Xo.O.6X9XuXaXCXiX4X0XfXwX+.7X_.u.q.,.OX7XoX4.-.6.6.K.L.w @ & @ @ l.5.% d g d d u a A.M.@ @ o M K.H.t.t.c.=.F 3XZXiX0X`.[.[.7X0XeXzXaX$.0XVXuX$.0XaXsXVXiXuX$.o.",
"0XuXCXVXuX9Xo.$.5X9X0XiXCXiX6X0XsX9X+.9XhXoXOX{.CX%.w.j.b.m.B.m.v O < 5 < @ l.8.< d g d i u p A.M.+ @ @ $ 2.K.K.D.Z.B.x . | rXwX' +.6X5X9XuXCXaX%.uXSXuX+.0XaXaXVXuX0X$.' ",
"4X5XVXsXO.+.+.4XuXuXiXuXuXuX9XuXaXiXuX0X5XuXaX5X&.%.%.!   o . o o o 4 4 @ @ l.7.< g g d i y p Z.M.+ @ @ @ @ o + + o + @ @ +   #.+.%.0XuXaXiX0X0X9XiXSXuX$.9XuXiXaX4X+.$.$.",
"6X5XiXiX4X4X%.5X0XuXiXuX9X0X0XuXiXuXuX9X#X9X0X%.O.6X3X_.s.v.H.F 2 3 @ @ o . j.7.< < i d d y p F.M.+ @ < 1 < 1 4.A.v.K.D o o o 4 ` aX0X0XiXuX9X9X9XuXVX0XO.5X9X0XuX5X%.4X4X",
"9X9X+.4XSXCXuX9X$.5XiX9X$.6X9X0XuX9X5XO.` o.o.$.%.0XE Z.Z.D.D.v.N p 2 . 4 / W.-.< @ 3 d d u a F.s.. o > < < m n.A.D.Q.9.o O % . - /.hX5X5XwX0X9X9X5X9X%.` $.%.5X9XiXsXiXiX",
"5X9X$.6XVXsXuX9X$.5XuX9X4X9X0X0X0X9X5X4X$.$.+.4X6XtX;.,.9.g.l.M.g.2 < > | %.oXb < > i d i i p F.b.K 1 o O # 9.j.u.g.j.x.S o o ; v a.N.1X5X9X0X0XuX9X4X%.$.%.%.5X9XuXiXuXuX",
"%.%.5X9X9X0XaXuX$.4X5XqXiXuXuX9X4X6X%.uXCX0X%.iXaX9Xe.-.9.b.n.m.8.o   >X%.6X'.,.3.> u f y 6 l.a.1XiX# o @ @ 2.9.g.l.s.+XjXq x b =.;.a..X5X9XuXiXSXuX) 5XaX9X%.4X4X6X6X9X0X",
"5X6X6X5X9XqXiX0X$.4X5X9XuXiXsXuX5X9X5XiXCXuX6XuXwX6 2.v Z 2.-.l.;.@ #.6X6X9X).>.x.2.r u 2 2 B.f.1X0XX + @ @ 7.6.Z 3.-.H.+X5X5X,XW W A 2.R.qX0XuXsXuX$.0XsX0X%.4X%.6X6X5X5X",
"0X9X%.%.9X9X0X9X$.4X9X0X9XaXKXsX9XuXgXaXCXiX9XuX>X  ;.<.c z c C m [ uX5X9XuXeXR.,.m.m 2 9 D d.W.,X6X..# o + c V V M n =.~.$.5X5X>X} R E R.qX9X9X5X0XaXaXCXuX4X4X%.4X5X' ) ",
"uX9X&.$.6X5X9X5X%.4X5X5X5X0XiXuX5XuXaXiXiX9X5X5X#.  Z <.1.<.3.X / 5X5X9XqXiXiXzX7.b.B 7 A M.b.eX5X4X6X[ o o O n 3.1.<.x E +.%.4X0X9X5X5X6X6X4X6X5X9X0XaXCXaXuX6X$.%.%.9XgX",
"iX9XO.+.+.+.%.$.O.$.6X%.+.+.+.%.6XiXDXuX&.%.O.$...  o A x.7.$   ..o.+.0XiXsXVXDXiX>.u.k.i.u.zXsX0X4X$.o.}   o C 0.7.k.: h ` ' %.VXsXiX0X$.O.' +.$.6X9XaXKXCXCX5X+.+.' CXIX",
"uX0X$.$.9X9X9X0XiXqX$.5XuXqX5X9X5X0XaX9X$.9XuX5X&.  o ; M : . X.aX5X5X5X9XuXiXsX0X].W.,.e.hXdXVX9XO.5X5XwXi @ $ l : l # s +.%.5XiXiXVXiX$.%.9X9X9X9X5X0XiXiXaX5XO.6X5XaXVX",
"iXaX$.4XsXaXiXsXKXaX` 0XDXsX0X0X5X5X9X%.` iXDX0X@.  o O . u Y CXSXuX0X%.%.9X9X0X5X%.<XE.<X9XsXKX0X` 0XaXCXfXo   O O O   P O.9X0X0XiXKXVX+.5XVXaXiX0X5X%.o.5XiX5X$.0XiXuXuX",
"9X5X$.4XiXuX5XuXSXiXO.9XiXaXVXiX0X9X6X5X%.uXdX,Xq . # @   ! aXaXaXsXaX%.%.9X9X5X6X%.5X0X9X5XiXVX9X' 9XiXsXCX9 o + + #   I %.0X0X5X0XGXdX%.9XuXiXVXuX$.6X9X5X6X6X4X0XuX0XqX",
"+.' $.6XuX0X+.5XSXiX$.5X9XaXKXVXuX9X$.5X0X0XuXR.s.m.V.l / aXaX5X0XKXSX' +.0X5X' O.%.9XsX9XO.0XsX5X+.9XpXsXCX5X|   2.m.B.m.Z.fX0X+.6XCXsX5X9X0XaXKXiXk 4XaX$.k %.5X0XiX5X4X",
"9X9X%.4XuX0X5X9X0X9X4X5X6XuXCXsXsX9X+.wXuXuXuXE x ;.3.c  .0X0X0X0XaXaXuX9X%.5X0X9X4X5X0X9X5X5X9X6X$.5X0XuXiXuX#.  g.3.;.;.b 6X9X9X9X9X9X9X9X5XuXCXaX5X5X4X5X0X5X4X9X0X5X5X",
"uXiX%.%.0XuXiX9X' $.9X6XO.0XVXVXDX0X_ 5XuX9XqX^   @ . l { 5X9XuXuX9XuXDXsX` %.VXiX%.5X5X9XuX4Xo.%.%.6X5X9X9XVX#.X 1.# O O . ..5XpX0X` O.9X5X%.0XVXsXCX0X) 0XCX9X%.5X9X9X5X",
"aXsX0X9X6X5X5X6X%.6X9X5X$.9XiXuXiX9X%.uX[ o < d f i o . | 6X4X4X6X0X0XuX0X%.9XCXaX5X6X%.4X6X%.$.5X0X5X4X5X6X5X+.  O o 5 f d d 1 2 6X$.4X9X5X$.5XaX0X5X5X6XiXCXuX5X5X4X6X4X",
"CXCXaXuX+.o.O.$.%.5XuX5X' %.0X5X6X9X9XsX}   @ @ < @ O   | O.+.' o.9X9X%.%.4X0XDXVX0X6X' +.+.+.' 9XVX5X$.$.+.o._   @ @ @ > @ o o o d @.5X0X5X+.%.0X4X' 6XuXsXSXaXuX%.' O.O.",
"sXaX5X5XuXuXaXuX5X6X$.5XuX9X5X5X$.9XiXiXj     . .   .   [ 9X9XuXuX%.%.5X0XiXaXSXaX%.4X$.9XiXiXsX9X&.%.$.5X9X4X+.d . o o o o o o .   ] 4X%.4X5X5X5X6X$.9XiXaXVX0X4X0XuXiXiX",
"aXiX+.%.CXCXDXsX5X%.) 5XSXuX$.&.' 9XVXiX} j Y j U ~ ~ I @.iXiXSXVX' o.9XiXCXCXSXiX+.%.%.aXDXDXPX9X6 +.$.9XiX5X%.8X! ! U d d f j U # @.%.' %.iX9XO.%.%.0XVXaXsX5X+.aXCXCXSX",
"9X9X+.$.uXiXsXsXsX0Xo.6XuXuXaX0X$.5X0X9X9X%.+.9XuXaXsXiXuX5X9XaXfXuXuX6X5XgXuXiX9X+.5XuX0X0XuXiXuX0X6X$.0XsX6X+.9X0XuX0Xo.+.9XgXsXaXaX0XO.6XuXpXaX9XO.5XuX5X%.%.$.0XiXiXiX",
"%.%.' +.9XuXaXsXDXiX+.4X5XuXSXiX4X6X6X%.&.+.' 0XaXaXdXfXiX4X4XuXiXVXsX%.%.5X6X5X4X+.9XsX0X%.5X6XiXVX9XO.uXVX6Xo.4X5X4X%.o.+.5XqXpXiXVXaX$.5XuXiXCXuX+.4X9XO.` O.$.9XuX0X0X",
"O.+.+.%.iXiX9X0XsX0X' 5XiXiXaX0X6X6X%.%.$.O.+.6X9X5X5XuXuX$.$.0X0XuX0X$.O.$.%.0X0X0X9X5X6X%.%.$.%.%.5X9X9X0X$.` O.$.$.$.5X5X$.%.9X9X9X6XO.$.4X%.O.$.%.%.%.9XuX9X9X4X$.5X5X",
"+.' +.%.iXiX6X9XaX0X' 5XaXiXiX0X5X4X%.$.$.$.O.%.6X%.%.0X0X$.$.9X0X0XqXO.+.+.%.0XuXiX9X4X%.$.$.+.+.o.6X0X9X9X+.) +.+.+.O.9X9X+.$.5X6X%.$.+.O.$.+._ o.4X%.O.9XaX0X0X%.o.4X5X"
};
