/* XPM */
static char *_383b434bb4a41cd88c76b8df94fa551ie22whphcNqHc3fE[] = {
/* columns rows colors chars-per-pixel */
"85 85 218 2 ",
"   c #010101",
".  c #03040B",
"X  c #0A090A",
"o  c #0C0409",
"O  c #040512",
"+  c #0A0B12",
"@  c #040E1C",
"#  c #0C0C1A",
"$  c #0A0813",
"%  c #110D1C",
"&  c #0F131C",
"*  c #131214",
"=  c #12131D",
"-  c #1D1C1C",
";  c #191717",
":  c #18130D",
">  c #281F1C",
",  c #0E1222",
"<  c #041627",
"1  c #121425",
"2  c #151A25",
"3  c #1C1D24",
"4  c #121629",
"5  c #141B2B",
"6  c #1A1C2D",
"7  c #1C1E31",
"8  c #1D2123",
"9  c #1C212C",
"0  c #16202A",
"q  c #1C2234",
"w  c #1E2539",
"e  c #192839",
"r  c #242324",
"t  c #22222C",
"y  c #2B2C2D",
"u  c #282522",
"i  c #232434",
"p  c #252B35",
"a  c #22273A",
"s  c #24293C",
"d  c #2A2D3D",
"f  c #2B2C35",
"g  c #263138",
"h  c #373C3B",
"j  c gray24",
"k  c #363536",
"l  c #3E3229",
"z  c #433D3A",
"x  c #42403E",
"c  c #252C42",
"v  c #2A2D43",
"b  c #253144",
"n  c #2B3345",
"m  c #2E334B",
"M  c #2D3C4C",
"N  c #2D3947",
"B  c #323545",
"V  c #33344B",
"C  c #313B49",
"Z  c #383E4D",
"A  c #223A55",
"S  c #393C52",
"D  c #303852",
"F  c #39434E",
"G  c #2E4159",
"H  c #344254",
"J  c #394455",
"K  c #3B455B",
"L  c #3E4C5C",
"P  c #35475B",
"I  c #394D63",
"U  c #374C66",
"Y  c #3B546A",
"T  c #3B5572",
"R  c #3E5A74",
"E  c #355572",
"W  c #434444",
"Q  c #4B4947",
"!  c #4C4C4C",
"~  c #464749",
"^  c #514C49",
"/  c #584F4F",
"(  c #58524F",
")  c #4C4F52",
"_  c #40465A",
"`  c #414D5D",
"'  c #424955",
"]  c #545454",
"[  c #5B5A56",
"{  c #5C5C5C",
"}  c #5B5652",
"|  c #615F5A",
" . c #5F615D",
".. c #64625E",
"X. c #434E62",
"o. c #445164",
"O. c #495265",
"+. c #45556A",
"@. c #49556A",
"#. c #4B5B6D",
"$. c #4A5A67",
"%. c #5C5E62",
"&. c #535B6A",
"*. c #445C76",
"=. c #4C5D72",
"-. c #435D78",
";. c #4E5F78",
":. c #525E72",
">. c #4F606F",
",. c #596268",
"<. c #46637C",
"1. c #4B617C",
"2. c #4B6072",
"3. c #546272",
"4. c #53647C",
"5. c #596B7D",
"6. c #646464",
"7. c #686561",
"8. c #6C6C6C",
"9. c #616568",
"0. c #716E6C",
"q. c #74716D",
"w. c #6E6F71",
"e. c #636D79",
"r. c #6E7276",
"t. c #747474",
"y. c #72777C",
"u. c #7C7C7C",
"i. c #76797C",
"p. c #817C7B",
"a. c #4C6985",
"s. c #566B86",
"d. c #4E738E",
"f. c #537187",
"g. c #55718D",
"h. c #5A748E",
"j. c #587587",
"k. c #517795",
"l. c #5B7592",
"z. c #5C7B95",
"x. c #59799A",
"c. c #606E85",
"v. c #606E88",
"b. c #6A7887",
"n. c #797E83",
"m. c #757E8E",
"M. c #627C97",
"N. c #617692",
"B. c #5D8099",
"V. c #7D8286",
"C. c #7C838A",
"Z. c #6A809B",
"A. c #6F889A",
"S. c #798591",
"D. c #6584A6",
"F. c #6F8BA4",
"G. c #6C8CAC",
"H. c #6889A8",
"J. c #6F91AD",
"K. c #7D94AB",
"L. c #6C8EB4",
"P. c #6F90B1",
"I. c #7994B6",
"U. c #768AA6",
"Y. c #838383",
"T. c #878887",
"R. c #8C8C8C",
"E. c #858587",
"W. c #8D8F92",
"Q. c #8C9398",
"!. c #949494",
"~. c #93979B",
"^. c #9C9C9C",
"/. c #95999C",
"(. c #A09F9F",
"). c #9EA09F",
"_. c #9A9CA1",
"`. c #839FB5",
"'. c #8A99A9",
"]. c #86A0B8",
"[. c #A3A3A3",
"{. c #A5AAAE",
"}. c #ABABAB",
"|. c #A6A5A8",
" X c #ADAFB1",
".X c #AEB6BE",
"XX c #B3B3B3",
"oX c #BBBBBB",
"OX c #B0B4BB",
"+X c #85AAC5",
"@X c #85B1D3",
"#X c #B3BAC1",
"$X c #BFC3C5",
"%X c #8BC0E1",
"&X c #9EC9EB",
"*X c #A0CBED",
"=X c #C1C1C1",
"-X c #C2C2C2",
";X c #C5C5C5",
":X c gray77",
">X c #C6C6C6",
",X c #C3C3C3",
"<X c #C8C8C8",
"1X c #CBCBCB",
"2X c #CDCDCD",
"3X c #CECECE",
"4X c #CBCBCB",
"5X c #D2D2D2",
"6X c #D5D5D5",
"7X c #D3D3D5",
"8X c #DDDDDD",
"9X c #DBDBDB",
"0X c #E3E3E3",
"qX c #EBEBEB",
"wX c #F7F7FA",
"eX c #F7F8F9",
"rX c #FDFDFE",
"tX c #F4F4F4",
/* pixels */
"Y.R.R.R.T.R.[.[.XX^.6.R.}.[.[.^.R.R.R.u.t.8.6.R.^.[.}.}.}.Y.u.!.!.}.[.t.u.[.R.{ 8.u.R.!.^.^.}.1X!.] [.-X}.}.R.t.^.}.u.8.6.t.}.}.^.[.-X}.t.R.XXXX1X[.t.R.[.u.{ t.t.^.XX^.!.",
"R.R.!.!.R.R.^.^.}.!.6.T.[.^.^.!.R.R.R.T.u.t.t.R.^.^.[.}.[.u.u.R.!.[.^.t.u.^.R.8.t.T.R.!.!.^.}.oXR.{ ^.oX[.[.T.t.^.[.u.8.8.u.[.[.^.[.oX[.t.R.}.}.oX^.t.R.^.u.6.t.t.^.}.^.!.",
"oX:XoXXXXX[.t.u.R.u.6.6.] 8.u.t.8.u.T.[.oXXXXX[.[.R.Y.!.!.8.6.6.8.T.Y.{ 6.t.T.[.[.}.!.8.R.^.T.t.t.t.Y.R.8.] t.Y.Y.Y.t.t.^.^.t.u.[.^.Y.u.u.t.6.6.[ 6.t.8.t.t.8.u.u.R.!.!.!.",
"XX-X-XoXXX[.8.t.R.Y.u.t.8.t.T.u.u.Y.T.[.-XoXoX[.^.T.u.R.R.u.u.t.u.R.R.t.t.8.Y.}.}.XX^.Y.R.R.u.t.u.R.R.!.u.8.Y.R.Y.u.Y.R.}.}.u.u.!.R.u.u.R.Y.u.t.{ 6.8.t.t.u.T.R.!.R.R.R.!.",
"!.^.3X4X}.^.8.t.u.^.1X:X1XoXXX}.}.^.Y.^.}.oX3X[.!.t.6.8.u.oX1XoXoXoXoX3XoX6.Y.XXoX3X1X9X^.~ u.R.}.-X-X:X1X5X}.!.R.R.}.oX1X:XoX[.6.t.R.^.oXoX1XXX!.Y.{ Y.!.XX1X:X1X^.u.u.t.",
"!.!.1X:X^.!.8.t.Y.^.-X-X3XoX[.}.XX[.R.^.[.oX1X^.R.t.8.t.Y.oX-XoXXX}.XX3XoXY.!.}.XX-XoX:X!.] u.Y.^.XXXX-X-X-X}.[.R.Y.[.XX:X-X}.^.6.t.T.^.XXoX:XXX!.R.u.R.R.}.-XoX:X^.Y.u.t.",
"u.Y.:XoX6.6.8.Y.[.[.!.XX8X}.{ ^.3XXX}.^.Y.}.:Xu.{ 8.t.!.[.^.[.}.[.8.u.-X-X:XoX!.!.^.T.6.t.u.8.[ t.u.!.}.R.8.XX5XR.8.R.!.oXXXu.t.t.t.8.u.^.[.[.[.^.}.1X^.6.T.!.[.XX^.!.u.8.",
"T.R.XX}.T.Y.u.T.!.!.R.[.:X[.8.^.-X}.[.!.T.[.XXR.Y.u.u.R.!.!.^.[.^.t.u.XXoX-XXXR.R.R.u.6.u.R.Y.u.u.t.!.[.R.u.}.1XR.8.Y.R.[.^.u.u.Y.Y.u.T.!.!.^.^.^.}.:X^.8.T.!.^.}.!.R.u.t.",
"[.[. .t.6X1X}.R.] 6.t.8.[ u.!.^.[.^.R.!.^.u.6.oX9X}.!.8.{ u.u.8.8.R.!.[.[.[.!.[ 6.6.8.6.!.oXXX:XR.] t.t.R.^.[.}.R.u.t.t.8.8.t.T.}.[.[.^.t.u.Y.Y.u.!.oX^.u.R.!.R.T.Y.u.T.R.",
"!.!.t.Y.-XoXXX!.[ 8.Y.u.u.Y.R.R.^.R.T.R.R.u.8.XX<X}.[.t.8.R.R.R.R.T.T.!.^.!.R.t.t.6.t.u.^.XXXX-X^.Y.R.R.^.}.^.^.T.u.Y.u.8.8.u.R.}.}.XX[.u.R.!.^.^.^.}.!.t.T.R.T.Y.R.T.!.^.",
"{ 6.^.[.T.!.:X}.8.R.[.[.oX!.{ t.T.t.6.t.t.Y.R.!.^.-X1XR.T.}.}.1X-X6.{ Y.Y.t.u.^.R.8.R.[.}.oXoXoX5X0X:XXX:X5X!.8.8.8.R.!.8.t.R.^.:X:X3XoX!.}.-X1X0XXX8.t.6.8.t.u.t.^.[.}.XX",
"u.u.!.!.R.!.oX[.t.R.[.[.}.^.T.T.Y.Y.u.u.u.Y.T.R.!.XXoXR.u.[.}.oXXXT.Y.u.u.Y.R.XX^.8.!.}.[.[.}.XXoXoXXX[.oX3X!.t.u.u.[.[.t.u.^.[.}.XXoX}.T.^.oXoX3X}.t.Y.u.R.^.R.u.^.[.[.[.",
"[.^.Y.u.Y.R.}.[.Y.!.}.^.u.^.1X[.t.!.[.!.Y.u.t.u.u.[.}.u.t.[.}.^.[.,XoX6.8.!.}.8XoXY.|.3X^.6.!.XXR.8.!.[.oX5X!.8.R.^.5X5Xu.Y.:XXX8.u.[.R.{ Y.oX}.^.R.8.R.^.:X0X}.R.[.XX!.R.",
"XX}.u.t.Y.T.^.!.u.T.!.!.!.!.[.!.u.^.XX[.^.Y.w.u.u.!.!.u.t.!.!.^.^.}.}.u.R.XXXX-X}.u.[ ! !.Y.!.^.T.t.Y.T.!.[.!.R.[.}.oXXXu.Y.}.}.R.R.^.R.8.u.!.R.Y.!.^.[.}.XX-X^.u.^.}.!.R.",
"1X-Xt.6.u.u.t.t.8.8.8.T.[.R.t.Y.u.}.9XoXXXT.{ u.T.t.8.6.6.t.u.!.!.!.^.[.XX9X:X[.!.[ 9.%.6.}.R.u.t.8.] W ~ ~ R.}.oX-X}.^.R.R.!.^.}.^.R.u.6.{ ! [ ] !.8X:X-X}.^.T.8.!.[.^.!.",
"oXXXu.8.u.Y.R.!.^.R.t.R.[.!.R.R.T.[.-XXXXXR.8.Y.Y.R.!.!.!.u.u.R.R.^.^.!.[.oXXXR.R.  V.i.  !.T.t.R.^.R.T.t.{ R.[.oX-X^.R.Y.Y.R.R.!.R.u.T.^.R.t.t.8.!.oXoX1X[.R.Y.t.R.!.R.R.",
"XXXXu.8.t.T.}.XX1X}.t.R.[.[.^.!.T.^.}.XXoX^.Y.u.u.}.oX1X:Xu.8.t.u.!.!.!.!.}.!.8.t.  y.r.. t.t.{ }.6XoXoXT.] R.^.:X6XR.8.6.8.t.u.Y.u.%.R.6XXXR.T.t.R.!.XXqX^.] 8.6.t.u.u.u.",
"^.^.u.u.!.!.!.[.1X}.8.R.}.}.XX[.R.^.^.^.[.R.u.R.!.^.^.oXoXY.u.R.!.XXXXT.R.^.R.w.* $ _.{.4.. T.R.[.XXXXoX}.^.!.T.^.[.Y.u.}.[.R.Y.t.u.T.^.-XXX}.[.!.!.!.^.}.R.8.^.XXR.Y.u.u.",
"Y.u.u.T.}.[.T.[.8XXX{ R.XXoX3XXX!.!.R.R.R.u.t.^.[.R.R.-X-XR.Y.!.[.6X1Xt.t.!.T.[     OX7Xa.  R.}.[.^.XX:X:X5X!.8.t.t.t.T.9X5X!.Y.[ t.^.}.oX,X6X-X}.^.!.T.8.t.t.-XqX[.u.u.t.",
"!.!.u.Y.^.^.!.^.[.!.t.R.!.[.oXXXXX^.u.R.!.R.R.!.^.!.!.[.[.R.R.R.^.oXXX!.R.u.u.! 8 $ |.-XE H ) R.[.}.[.[.XX-X^.R.Y.u.R.!.^.[.}.^.6.t.!.^.[.[.}.XX:X}.T.T.u.R.^.}.XX}.[.T.t.",
"!.^.u.u.^.^.^.!.u.Y.Y.Y.u.^.XXoX5X[.8.T.!.!.!.^.^.^.^.!.!.!.!.!.!.XXXX}.^.8.8.  v 6 ~.#XI I.  0.[.XX^.R.XX:X}.[.u.8.!.^.t.Y.:XXX6.t.!.!.!.!.!.}.0XXXt.u.8.!.XX[.^.XX:XR.8.",
"XXoX[.!.Y.Y.T.T.Y.R.^.R.t.R.^.^.[.!.Y.[.oXXXXXT.t.T.R.R.R.!.R.Y.Y.!.!.R.R.T.u.  s 7 -.d.o.Z.@ u.!.!.T.u.!.^.!.!.!.!.XXXX!.!.!.R.Y.u.u.p.u.T.R.^.XX^.u.R.!.}.1X_.R.!.!.^.^.",
"-X1XoX[.8.8.w.t.u.!.XX!.6.u.R.T.T.R.T.}.3X-X:Xu.] t.u.u.u.!.!.u.t.t.t.t.u.8.. d a 6 -.k.` #.z.0 ^ Y.t.6.u.u.R.R.^.[.-X-X^.!.t.t.R.Y.8.8.t.u.R.R.^.!.p.!.^.oX8X^.u.u.t.[.XX",
"1X1XR.R.^.[.oX}.t.u.u.!.}.^.^.!.u.^.XXXX-X[.!.[.[.XXXX!.R.t.t.t.i.[.[.u.R.q.  V a 6 -.k.` _ G.O l t.!.[.[.}.R.t.}.oX:XoXY.u.u.R.XX}.XX^.t.u.u.u.u.R.R.[.XXoX1X!.8.T.R.XX:X",
"3X1Xu.u.XX-X0XoX8.t.6.!.:X}.^.!.8.[.1XoX:X^.t.XX:X3X3X^.R.6.{ 6.u.oXXXt.Y.! = v a 6 -.k.` X.4.P ~ 6.^.oXXXoXR.8.XX3X5X:Xt.8.t.R.1X:X3XXX8.t.t.t.6.u.!.}.1X-X:XR.{ R.!.-X6X",
"}.}.6.8.[.}.-XoX1X[.] Y.}.}.oX[.R.^.^.^.[.Y.8.^.}.oX-X:XoXt.8.R.!.:XoXt..   S s a 6 -.k.L o.H H.T   R.[.oX5XR.8.R.!.[.[.t.u.[.}.[.}.-X}.u.u.8.!.3X}.T.!.!.!.^.T.t.^.XX[.[.",
"^.^.] 6.^.[.XX:XqXXXj u.^.}.1X}.^.!.R.R.R.t.{ !.[.XXoX6X5Xt.8.^.[.3X-Xt.u . v s a 6 -.k.` o.L l.U o Y.!.oX8X!.6.t.t.!.!.t.u.oXXX!.[.-X}.Y.Y.8.^.tXoXY.T.t.Y.R.Y.u.}.-X^.R.",
"u.t.8.u.}.}.[.}.1X[.{ R.oXXXoX}.!.^.^.Y.8.8.6.!.}.[.}.oXXXu.t.!.^.XX^.- 9 a s s a 6 1.z.L o.X.+.;.4.8 ).}.}.T.6.R.^.u.t.8.t.!.^.[.[.[.[.!.^.XX}.XX^.u.R.^.^.[.R.T.!.^.!.!.",
"8.6.t.Y.}.}.^.[.oX[.6.!.-XXXoX}.!.^.^.u.[ 6.6.!.[.^.[.}.}.u.u.R.!.[.^.  5 n a s s q K ;.o.o.o.K 4.D.  ^.[.^.u.6.!.[.t.8.t.t.Y.R.[.^.!.^.!.[.:XXX^.!.u.R.[.[.}.!.R.R.R.R.R.",
"^.^.[.^.Y.T.^.^.^.R.t.Y.R.R.R.Y.u.u.t.!.XX}.}.u.6.R.!.!.!.t.t.u.Y.^.Y.. q c s s s q K :.o.o.o.` =.a.F w.^.^.u.8.u.u.!.[.oXXXR.T.T.Y.u.u.Y.R.[.^.R.u.8.u.u.[.oX[.^.!.!.Y.u.",
"[.}.}.[.t.u.!.!.R.T.u.u.Y.u.u.t.t.t.6.^.-XoXoXu.[ R.!.R.R.t.t.u.Y.8.  B s s s s a 6 *.h.X.o.o.o.L o.u.3 z ^.u.8.t.t.^.}.:XoXR.Y.u.u.t.t.u.T.^.R.Y.u.8.t.8.[.-X}.^.!.R.u.t.",
"}.XX-XXX^.R.t.t.t.!.XX}.XX^.T.u.8.Y.T.[.oX-X1X}.[.u.8.Y.R.XXXXXX}.8.  v s s s s a q H +.o.o.o.o.L 3.|.f ^ T.u.t.t.t.!.^.[.^.t.t.t.u.R.R.u.u.Y.u.8.t.8.t.u.R.^.R.Y.u.t.u.u.",
"}.XX:XoX[.!.8.t.t.!.XXXXoX[.Y.T.u.R.R.[.XX-X1XXX}.t.6.p.R.oX-X-XXXu.  d s s s s a q H @.o.o.o.o.o.+.m.X 0.T.R.R.u.t.R.!.~.!.w.t.Y.R.[.!.t.u.u.u.T.u.8.t.u.T.!.Y.t.t.8.T.R.",
"Y.R.1X:X[.!.{ t.!.!.!.}.1X}.u.^.XX^.u.^.[.oX3X[.!.t.6.T.R.}.8.0.R.x   a s s a s v w L 4.:.:.@.X.o.o.#.. k T.R.!.R.{ 8.t.Y.Y.8.Y.XXXX6XXX8.t.8.!.9X[.] 8.8.Y.!.u.t.t.8.}.oX",
"T.R.XXXX}.^.t.u.R.!.^.[.XX[.R.^.XX^.Y.!.^.}.XX[.[.T.u.u.Y.R.* *     3 B a a c a % % p Z B B X.@.o.o.=.p         6.6.t.Y.u.u.t.R.XXXX1XXX8.u.R.^.3X[.u.u.8.T.!.u.t.u.u.[.XX",
"[.[.t.u.-XoX^.!.u.R.}.!.8.T.^.^.}.^.R.R.R.u.8.XX1X[.!.r   d [.^.5.o.#.O.v w c 6             B :.o.o.@.C i v v m .   r _.t.i.!.^.XX}.[.!.t.R.oXXX^.[.oX^.8.T.!.Y.t.R.^.!.!.",
"!.!.Y.R.XXXXXX^.t.R.^.!.R.!.^.^.^.!.Y.T.T.Y.u.}.[.; : =.x.1.=.:.@.o.o.o.o.K   8 Q.A.b. Xb.C.y p c.@.b a s s s c q q 9 r ; t.Y.R.}.}.[.!.t.T.[.[.[.[.}.!.t.!.}.T.8.R.R.!.^.",
"6.t.^.[.^.[.9XXX6.t.t.^.<X}.R.R.u.8.] 8.8.R.8...) U S.5.g.1.L ` o.o.o.o.v.= 0 1.F 5 f ) y ~ i = 3 K s a s s s s c v s . O f [ ..}.[.!.R.8.t.u.R.}.^.R.!.R.XX6XR.6.u.u.^.}.",
"T.T.!.!.!.[.1X}.8.Y.R.^.}.}.}.^.T.Y.t.u.6.8.e < P D.'.:._ ` o.o.o.o.@.=.p 3 e H / ( } [ [ 7.3   . $ v v s s s s s a s v V ,   . u.t.Y.T.T.u.8.Y.^.R.T.R.T.}.3X!.u.u.t.R.!.",
"[.^.Y.u.R.!.XX[.u.!.XX[.R.XX8XoX!.~.^.u.+ & M.L.a.H L X.o.o.o.o.o.o.o.H   N p ^ rXrXeXeXeXrXt.# 3   6 s s s s s s s s a a v V c     h t.^.T.] 6.u.t.t.t.8.[.:X}.^.u.8.6.] ",
"}.}.u.u.R.R.^.!.u.T.!.!.R.^.oX[.W.    N J.l.Y I o.X.o.o.o.o.o.o.o.=.N   #.   .rX6X7X7X7X7X7XrX8.  v   1 n a a a a a a s s s a a s d 3     ^.8.t.8.u.R.Y.t.[.:X[.^.u.8.T.R.",
"-XoXt.8.Y.u.6.6.8.8.8.u.R.R.u.- u Y R +.+.U L L X.X.X.X.X.` X.o.o.=.N   #.  [ rX7X6X7X7X7X7XrX6.  w   & a 6 6 6 6 6 6 6 6 6 5 1 4 5 # . $ - ; { ~ u.}.!.t.}.3X}.^.u.8.XX3X",
"-XoXt.8.u.Y.R.R.R.T.t.u.Y.[ s E f.@X%XG.g.K.h.f.h.g.g.g.g.l.s.+.@.4.Z   M   | eX7X7X7X7X7X7XwX .  _   9 @.-.*.*.*.*.*.*.*.T 1.Z.Z.Z.M.N.N.a.f.>.~ u.^.^.^.^.[.!.R.Y.u.^.}.",
"5X1Xt.6.6.u.oXXX[.!.T.t.{ W n B.F.F.J.f.s.U.1.-.<.<.<.<.<.<.-.K J X.n   q   6.eX7X7X7X7X6X7XwX{   &.  p j.z.l.h.h.h.h.h.h.g.M.].`.K.+X*X&XG.H.2.y t.R.}.0X!.] 6.] R.^.T.u.",
"XX}.t.t.R.!.[.}.oX[.8.T.^.!.t.X X 4 , 5 7 4 7 7 6 6 6 6 6 6 7 a a c 1   s   6.rX7X7X7X7X7X7XrX{   =.  p #.L ` ` ` ` ` ` ` ` L J o.` s.+X+Xy X [ !.!.R.^.}.!.Y.T.T.Y.Y.R.R.",
"R.R.u.R.XX}.R.}.0XXX! ^.9X:X-X[.R..   . m s s a a a a a a a a s s n 2   d   0.rX7X7X7X7X7X7XrX|   G.  t :.o.o.o.o.o.o.o.o.X.L X.W.R.,.    R.] R.6XXXR.T.t.R.^.^.}.8.~ T.^.",
"R.T.u.T.}.[.R.[.5X}.6.R.}.XX3X}.!.!.!.%.    d m v a s s s s s s s s a 2   = 3 q.rXrXwXwXrXrXq.M R & n ` @.o.o.o.o.o.o.L J 1.H.z.6 9 ,.R.T.R.8.!.3X}.R.T.t.^.XX}.XXR.t.Y.Y.",
"t.8.u.T.[.^.Y.^.1X[.8.Y.Y.}.0XoX!.^.^.T.{ 8.. . $ V v s a s s s s a c n + .   # 8.7.6.6.{ ..M A N 8 +.=.X.o.o.o.` L X..X#X5.< e ! Q R.u.u.u.u.^.6XXXR.T.{ }.9X:X:X[.!.t.6.",
"!.~.T.T.^.^.!.!.!.R.T.R.Y.[.-XXXoX^.t.!.^.!.~ y k 1 # a v s s s s s a i S 2 = 1             -.s   =.+.o.o.o.` ` 3.e.m._.{.V.Q ( t.u.u.u.Y.Y.t.!.:X[.R.T.8.^.XXXXoX^.R.u.t.",
"[.}.R.T.!.!.^.R.6.u.^.R.t.!.XXoX8X^.! !.oX}.[.R.u.. * i a a s s s s a s O.c.s   s s q n 4.G.1   b q ` @.o.o.=.#.C.8.R.o   T.R.T.u.t.t.u.R.T.8.R.oX[.T.Y.8.R.!.}.oX!.Y.t.8.",
"XXoXR.R.^.^.XX^.t.Y.R.R.!.!.^.^.^.^.!.}.-X[.!.!.!.}.XX;     B n v s B O.o.o.#.M           . 2 c s a w X.3.c.!.R.$.  + XX!.R.^.[.XX[.t.t.8.Y.[.^.^.!.T.!.[.}.XX^.R.[.[.}.XX",
"1X:X!.!.^.[.oX}.t.Y.Y.!.}.!.Y.u.8.!.XXoX3X[.R.^.[.oX-X!.^.8.        t #.o.X.#.o.g g L C + + w n s s w 9 +   t 3 u.^.}.1X8.t.}.oX8XoXt.8.! u.-X}.u.R.R.[.:X-X:X!.8.}.oX1X6X",
"}.}.t.t.^.[.oXoXoX^.[ Y.^.[.oX[.R.!.!.^.}.R.t.!.[.oX-XoXXXY.[ ..t.k   +.o.o.X.o.2.#.D.g.w c s s s s b   > p./ z !.!.}.[.6.8.^.}.-XoXXX}.u.R.[.[.XX^.u.R.^.^.^.R.t.^.[.oX1X",
"[.[.{ 8.^.[.oX-X6X[.~ u.^.}.3X}.!.!.R.!.^.u.6.!.[.oX-X:X-XT.u.!.[.|.  ;.+.o.o.o.o.` g.1.7 a s s s s c   Y.8X!.6.u.T.!.!.{ 6.^.[.oX-X5XoXR.!.^.}.-X[.t.T.R.R.R.Y.t.!.[.oX1X",
"Y.u.6.t.}.}.}.XX3X}.6.R.XXXX-X}.!.!.^.R.u.8.6.!.[.[.}.oXXXY.u.^.[.p.. n.:.X.o.o.o.L h.1.7 a s s s s b   0.XXT.8.!.^.R.u.8.t.[.[.[.}.-X}.t.!.XXXX:X[.8.R.}.Y.{ t.u.^.[.[.}.",
"u.t.8.u.}.}.[.}.5X}.6.!.oXXXoX}.!.!.!.Y.8.8.6.!.^.[.[.XXXXY.u.^.[.[ . Y.:.` o.o.o.` h.1.7 a s s s s M   ] [.Y.8.!.[.Y.t.t.u.^.[.^.[.oX}.t.R.XXXX1X[.6.R.XXu.] t.u.!.[.^.^.",
"^.[.^.!.T.R.[.[.}.!.{ t.Y.T.!.T.t.t.t.t.t.Y.R.u.u.^.[.!.R.8.8.t.i.u.6.' <.;.X.o.o.` h.1.7 a s s s a + 8.(.}.Y.t.t.u.^.[.!.R.t.Y.[.^.[.!.8.u.R.R.R.u.8.t.t.!.XX!.R.T.Y.!.!.",
"[.}.[.^.u.Y.^.^.[.R.8.t.t.u.T.u.8.8.8.t.u.R.!.u.t.!.^.T.u.8.8.t.t.] [   d.f.K o.o.` s.-.7 a s a v w   R.!.[.Y.8.t.t.[.}.[.!.8.u.^.^.^.R.t.u.R.Y.t.t.8.8.6.^.:X[.!.T.u.R.!.",
"XXoX-XXXR.T.u.u.8.!.:X}.^.R.Y.u.{ T.^.}.-XoXoX^.R.u.t.u.Y.XXXXXX}.t.6.* <.a.X.o.o.L h.1.7 a s s s q * 6.8.t.{ ~ R.[.XXoXoXXX[.^.u.u.t.!.3XoX^.!.T.t.! u.^.}.oXoX:X[.!.!.R.",
"XXoX1XoX!.T.8.8.6.!.6XoX[.!.u.u.8.R.[.XX3X1X1X[.^.u.8.u.Y.oX-X-XXXY.t.{ 3 G l.L o.J I.F.4 a s v # * t.6.8.t.6.[ R.[.XXoX-X-X}.^.t.t.8.!.9X-X[.^.T.u.{ Y.^.XXoX:X3X}.^.R.Y.",
"^.}.3X1X[.!.6.8.T.!.[.XX3X}.Y.^.XX!.6.!.XX-X3X5X5Xu.] Y.R.}.XXXXXX1X1X:X  A G.H o.J `.K.1 a a D O   XXXXoXoX:X3X!.t.^.}.3X1X}.!.{ 6.u.T.^.[.3XXXt.^.:X[.t.^.XXoX:X}.[.t.6.",
"^.[.1X:X[.!.6.t.R.!.^.}.1X}.T.^.oX!.6.!.}.oX1X1X3Xu.[ Y.R.[.}.}.XX:X1X5X^.' U 1.o.J {./.1 a c , k !.oX-XoXoX3X8X!.t.!.[.3X:X[.R.[ 8.T.R.!.[.3XXXu.[.6X[.8.^.XXXX-X[.^.t.{ ",
"Y.R.-XoX8.8.8.Y.[.[.}.[.[.[.!.[.XX}.[.^.R.[.XXR.t.u.u.6.8.!.^.[.^.8.u.-X-X7.. P.` H ~.w.1 a m   ^ [.oX3XR.] }.6X^.u.Y.R.:XoXt.8.8.u.^.[.XX}.^.^.!.}.5X[.t.!.[.}.XXY.8.t.t.",
"T.R.}.}.Y.Y.u.R.^.[.}.[.!.^.^.[.}.[.[.!.Y.!.^.u.8.T.R.Y.Y.R.R.^.^.t.u.XXXXt.e x.o.H /.V.1 a c . { ~. X:XT.] [.-XR.u.Y.R.XX}.Y.Y.T.R.!.^.}.[.!.!.!.[.-X^.8.R.!.^.[.R.u.Y.Y.",
"!.!.8.Y.6X1X[.!.t.R.}.!.t.T.!.^.[.!.R.8.] 6.6.t.u.^.XX1X:Xu.t.R.!.}.[.^.W.t.8.@ x.I {.$X1 s   { u.Y.!.[.Y.8.R.!.t.6.T.R.Y.R.XXoXoX}.t.u.R.!.^.!.!.R.!.u.] t.u.R.!.}.oX}.}.",
"R.!.t.T.:XoX[.!.t.R.[.!.Y.!.^.^.^.!.R.Y.t.t.8.Y.T.^.}.-XoXY.t.R.!.}.}.!.R.u.6.  L.Y Q. X7 m   ] T.R.!.^.R.R.R.R.u.u.R.R.Y.R.}.XXXX[.t.u.R.!.^.^.[.!.Y.u.t.u.u.R.!.[.}.[.[.",
"u.u.R.!.!.^.XX[.t.Y.R.!.}.[.[.!.Y.T.u.[.3X^.u.}.XX!.R.[.}.R.R.!.^.oXXXY.u.T.u.~ I T C.y.5 2 W t.^.}.^.R.}.:XT.6.!.[.!.R.R.R.R.!.XX[.u.T.R.!.[.}.5X[.! R.XX!.u.Y.Y.T.T.!.^.",
"R.T.T.R.!.!.}.^.t.Y.R.!.[.}.oX[.R.!.R.}.1X[.T.[.}.!.R.[.[.T.Y.R.!.}.}.T.T.!.!.!.  E E.n.@   T.t.R.^.!.R.}.oXR.t.[.XX[.^.Y.Y.T.R.^.!.u.Y.R.!.^.[.oX[.t.^.oX^.u.Y.u.T.T.R.R.",
"^.!.u.u.!.!.^.!.t.T.!.^.!.XX0XoX!.[.[.XX3X}.!.[.[.!.!.^.^.8.8.t.u.[.[.R.!.[.[.}.  R C.V.,   8.{ t.T.!.!.}.-X!.Y.XX:XoXXXt.t.R.Y.8.8.6.t.!.!.!.!.R.^.XXXX1X[.Y.Y.u.Y.R.6.~ ",
"[.!.u.t.T.R.!.R.u.Y.R.R.R.^.}.[.R.[.XX}.}.!.R.R.!.R.R.T.T.!.!.^.!.R.R.!.!.}.}.oX^.3 e.r.X ^.!.!.R.Y.T.T.!.[.^.W.XX:X1XoX8.6.u.Y.^.!.R.R.T.T.Y.T.R.!.^.XX3XXX[.T.t.u.u.!.[.",
"}.!.8.6.6.8.u.t.8.t.T.u.6.8.6.u.T.}.9X[.u.u.8.t.t.T.R.6.6.}.oXXX}.6.8.^.}.oX-X8XXX  &.%.  8X-XoX^.Y.t.6.8.8.^.}.:X5X0X3X[ ] { u.:XoX}.^.t.8.[ 8.t.T.!.XX0X1X1XR.6.6.[ 1XqX",
"[.^.t.t.!.!.!.^.}.^.t.R.[.^.R.!.R.^.XX!.t.!.[.R.T.Y.u.u.T.}.XXoXoXR.R.R.!.[.}.oX^.} $.&.[ XXXX:X!.8.R.R.[.XX!.R.[.}.oXXX6.6.u.R.}.}.-X}.t.u.!.!.!.!.R.^.}.}.XXR.8.T.R.XX-X",
"}.XXt.Y.oXXX}.oX0XXX] ^.8XoX^.^.R.R.!.u.] }.9X^.Y.u.t.!.^.}.XX9X5X[.^.u.u.!.!.^.R.u.! h !.!.oX0X^.] ^.XX1X0X!.%.t.t.[.[.8.8.!.^.^.}.0X-X6.R.:XXX}.^.R.u.6.R.}.R.t.^.}.[.[.",
"!.R.t.Y.}.[.R.[.5X}.8.!.}.XX-X}.^.!.T.R.u.[.oX}.}.u.8.!.^.}.XXXXXXoXXXu.u.!.!.R.T.u.R.^.!.R.}.:X!.| !.}.oX3X!.8.R.!.R.T.t.u.^.^.R.^.5XoXu.!.[.}.:X[.t.T.!.R.T.T.Y.^.[.^.^.",
"8.{ t.T.[.^.8.R.6X}.t.R.!.XX0X-X[.!.t.R.^.^.[.3X8Xu.{ ^.[.XXXXR.^.0X5X{ 8.^.R.{ 8.u.!.oX!.8.^.oXR.6.!.}.oX1XR.6.[.XX6.] Y.R.}.^.8.T.3XoXR.!.^.XX0X}.h Y.XXt.j u.R.^.}.R.Y.",
"!.!.u.Y.[.^.R.!.^.!.Y.R.T.[.3XoXoX!.6.!.[.[.[.}.XXu.8.R.!.^.^.^.^.XXXX[.!.u.R.^.!.Y.R.^.!.R.R.!.T.t.R.^.[.}.[.[.!.R.R.R.u.u.!.!.!.!.!.!.!.!.R.[.3XXXR.R.Y.R.^.R.Y.!.^.R.R.",
"[.}.u.u.^.[.}.!.{ t.!.T.8.^.:X-X9X^.W R.XX^.!.^.^.t.6.T.R.R.!.[.[.!.[.9XoX] u.:X}.u.R.R.!.[.Y.6.i.u.T.R.!.!.-X9XY.[ (.[.t.8.Y.R.XX^.] 8.!.R.u.^.:XoX3X^.~ ^.1X!.u.R.!.!.R.",
"XXoX^.!.T.R.R.R.u.T.!.R.t.!.}.[.}.!.u.[.:XXX}.R.Y.R.!.!.!.T.Y.Y.T.^.^.[.^.u.!.1XXXR.T.u.Y.T.u.t.R.^.R.Y.R.T.R.!.R.R.}.XX!.R.u.u.!.R.t.Y.!.R.t.R.XX^.R.R.T.}.1X[.R.R.Y.T.Y.",
"1X3XXX[.6.6.8.t.u.R.[.R.{ u.^.R.T.!.!.oX9X3X3Xu.[ ^.}.[.^.8.6.[ 6.!.!.u.u.Y.^.9X-X^.T.{ 6.6.6.{ !.-XR.t.t.6.6.[ R.^.oX-XXX}.6.6.t.t.Y.R.^.R.6.u.^.Y.[ T.[.oX6XXX[.u.{ 8.8.",
"oXXXR.R.[.[.XX[.R.T.t.R.[.!.R.R.t.!.}.XX:X}.^.R.u.}.XX[.[.!.!.[.[.u.u.R.^.}.XX6XXXu.Y.t.!.}.}.oX!.u.u.t.R.!.Y.t.^.XX:XoXY.u.R.!.XX[.Y.Y.u.Y.R.R.R.T.t.!.}.XX-X^.Y.^.[.}.}.",
"XX}.8.u.1X3X9XoXR.u.! R.5X[.t.u.{ !.-XoXoX!.t.R.R.XXoX}.[.}.}.5X:X{ 6.!.}.3X3X6X}.6.u.u.XX8X8XwX!.r 8.t.!.}.R.u.XX:X6X:X{ 6.[.XX8X,XY.u.[ u.}.!.8.u.u.^.-XXXoXR.8.XX3X3X6X",
"!.!.6.t.[.}.oXoXoX^.6.T.[.[.XX^.t.R.^.!.!.u.8.!.[.XXoX}.[.R.!.XXXX[.[.T.R.^.[.}.!.8.R.[.^.^.[.}.[.^.T.t.^.oXT.8.!.^.[.^.6.8.!.^.oXXXXX^.8.T.[.[.XX!.8.R.[.R.u.u.t.^.}.}.}.",
"u.u.{ 8.!.[.XXoX9X}.6.Y.R.[.5X}.Y.T.T.u.u.8.{ ^.XXXXXX}.}.Y.Y.[.}.:XoXu.u.R.T.R.Y.8.!.oX^.u.R.T.}.:X!.8.[.-XT.6.Y.R.Y.u.6.6.R.!.|.}.<XXXt.R.[.}.3X[.8.Y.!.8.] 8.t.!.[.^.^.",
"t.8.6.u.}.}.!.^.oX^.{ R.}.}.XX^.T.T.u.u.t.8.8.T.!.R.R.[.[.t.t.^.^.[.^.t.8.t.u.^.^.^.!.R.T.u.u.t.u.u.R.!.!.^.t.] 8.t.t.t.R.R.t.u.!.!.!.T.8.t.Y.u.8.t.u.u.u.!.[.!.!.Y.t.R.R.",
"8.{ 6.u.}.}.T.!.XX^.{ R.XX}.}.^.R.Y.u.t.t.t.8.u.T.u.u.^.^.t.t.!.^.^.^.8.8.6.u.^.[.}.!.Y.u.t.t.8.8.6.T.^.!.!.8.! 6.8.6.8.!.!.8.t.R.T.u.t.8.8.t.8.~ 6.Y.u.8.!.XX^.^.u.6.Y.R."
};
