/* XPM */
static char *_88e4bda13ae40f18a2269bce3f873c2yh4NlZxVxeew1Ze2[] = {
/* columns rows colors chars-per-pixel */
"85 85 175 2 ",
"   c #000105",
".  c #00040C",
"X  c #000A0F",
"o  c #000612",
"O  c #000B15",
"+  c #000D1A",
"@  c #001017",
"#  c #01121D",
"$  c #00181F",
"%  c #021522",
"&  c #091623",
"*  c #031925",
"=  c #091A26",
"-  c #041C2A",
";  c #0A1E2B",
":  c #131F2E",
">  c #051C30",
",  c #0A1F30",
"<  c #06212D",
"1  c #0B212E",
"2  c #11212E",
"3  c #072231",
"4  c #0C2432",
"5  c #0E2835",
"6  c #0E2738",
"7  c #0F2939",
"8  c #122534",
"9  c #182634",
"0  c #132936",
"q  c #182A37",
"w  c #122738",
"e  c #142B3A",
"r  c #1A2D3C",
"t  c #16313D",
"y  c #1B313E",
"u  c #20323F",
"i  c #162E41",
"p  c #1B2E41",
"a  c #163141",
"s  c #1D3343",
"d  c #1F3946",
"f  c #1E3648",
"g  c #1F3B49",
"h  c #223545",
"j  c #293746",
"k  c #233846",
"l  c #293A47",
"z  c #233648",
"x  c #253B4B",
"c  c #293D4C",
"v  c #263D51",
"b  c #2A3E51",
"n  c #313F51",
"m  c #26414F",
"M  c #2C414E",
"N  c #30424F",
"B  c #264150",
"V  c #2D4254",
"C  c #2E4956",
"Z  c #2E465A",
"A  c #2F4B5B",
"S  c #314556",
"D  c #334A57",
"F  c #324659",
"G  c #384659",
"H  c #354B5B",
"J  c #394D5E",
"K  c #36505F",
"L  c #3A505E",
"P  c #364D61",
"I  c #3A4E61",
"U  c #375162",
"Y  c #3D5264",
"T  c #3F5967",
"R  c #3E5568",
"E  c #3F596A",
"W  c #41525F",
"Q  c #415466",
"!  c #475A67",
"~  c #425669",
"^  c #455B6C",
"/  c #495D6E",
"(  c #465E71",
")  c #4A5E71",
"_  c #4A606F",
"`  c #466072",
"'  c #4C6274",
"]  c #4E6877",
"[  c #4E6579",
"{  c #4E6979",
"}  c #516576",
"|  c #52667A",
" . c #546A7C",
".. c #596C7E",
"X. c #57707F",
"o. c #58717D",
"O. c #566C81",
"+. c #596D81",
"@. c #557182",
"#. c #567081",
"$. c #597383",
"%. c #5D7082",
"&. c #5E7285",
"*. c #5E7287",
"=. c #5D7386",
"-. c #5F7487",
";. c #5B7284",
":. c #5E7588",
">. c #5F7688",
",. c #5C758A",
"<. c #5F768B",
"1. c #5E7589",
"2. c #5F798B",
"3. c #5E798C",
"4. c #607486",
"5. c #607589",
"6. c #627489",
"7. c #607789",
"8. c #60748A",
"9. c #60778A",
"0. c #63778C",
"q. c #61768A",
"w. c #62798D",
"e. c #657A8E",
"r. c #667A8F",
"t. c #617C8D",
"y. c #677C8E",
"u. c #647A8D",
"i. c #697D8E",
"p. c #667D91",
"a. c #697E91",
"s. c #697E93",
"d. c #697E92",
"f. c #658094",
"g. c #6B8093",
"h. c #6B8096",
"j. c #6A8296",
"k. c #6D8095",
"l. c #6F8295",
"z. c #6D8097",
"x. c #6F8297",
"c. c #6C8497",
"v. c #6B8295",
"b. c #6F8298",
"n. c #6B8699",
"m. c #6B849A",
"M. c #6C8599",
"N. c #6E8599",
"B. c #6F889C",
"V. c #6E899D",
"C. c #718496",
"Z. c #728797",
"A. c #728597",
"S. c #708598",
"D. c #71869A",
"F. c #71899B",
"G. c #718A9D",
"H. c #73899F",
"J. c #75889D",
"K. c #73899D",
"L. c #758DA1",
"P. c #798FA3",
"I. c #7791A3",
"U. c #7891A3",
"Y. c #7A90A5",
"T. c #7A91A4",
"R. c #7C94A9",
"E. c #7F99AF",
"W. c #8194AC",
"Q. c #8498AE",
"!. c #829AAE",
"~. c #809AB3",
"^. c #8BA4B9",
"/. c #90A5BB",
"(. c #8FABC2",
/* pixels */
"c V S x l V - r k k z x h ; s x y x x x j = 8 h k h s h S x w h c k V 4 ; h s h k c c c c S c l M - r l h h c s - t x h c c c x = 4 h k h s h S k w k c x V 8 ; h s h h c ",
"O.5.J.O.z.S.3 I 5.g.j.E.H.w R 5.:.:.@.:.z.- R z.| ;.r.+.:.2.N.U.s.' !.C e g.y.;.) 0.A.O.5.J.O.z.A.1 I 5.j.m.~.H.w R 5.5.5.+.:.v.- Y b.| ;.r.+.&.w.m.Y.s.' Q.D w z.s.;.) w.",
"S V V I k * * 8 S Y  .F.w.5 x Y Y H V ^ 5.4 V ^ S J Q ^ V S ..%.H x @.H 4 ~ /  .H S Y S V V I k * - 4 S Y  .B.t.0 c Y Y H V ^ 2.5 V ! F I Q ^ V S  .%.A x +.J 4 ~ ^  .H S ",
"Y Y s 4 < 4 % - V J H R ' = t Y H H S R O.0 - x ~ J S I J H S H H V ( m q H S Y Y I I Y Y s 4 - 4 % * V J H R ' = s Y H H S ~  .0 - x ~ J S J J F S H H S ) V q H S Y Y J ",
"r h 1 # g y # h Y J S Y  .; # V Y Y Y P V ; + # y R R H H Y Y J H F &.V # r x H I b r e y 1 % l y @ s Y J H Y  .; # V Y Y Y I V ; + # r R ~ H J Y Y J H S :.V % e x H I b ",
"+ # # - 1 O = H Y L S ' t.- % 3 s J H 5 0 < * 8 % 1 S Q Y S b S H ~ L.G . - 0 4 q 1 + @ # # - 8 O = H Y Y S ' y.; # < h J H 5 w < * 8 % 4 V Q Y S c S H Q L.J . = 0 4 q 4 ",
"~ - / &.} ' 0 S ~ c c ^  .1 s l - < 4 3 R 0 - J V - % S H 3 % s Y ^ s.c 4 / R  .^ ^ A.~ - / ;.[ ' w V ~ b x ~ O.1 s x ; 1 4 3 Y 8 * J S ; % S H 1 * s Y ~ s.x 5 _ R  ./ ^ ",
"[ 3 ' %.) y.t s s ; c ~ ) r S ~ S e y J ' 0 # 4 x h # + 5 e r l V x H e s ^ ^ %./ J s.' 3 ' %.` p.p s h 1 b ~ ' e S ~ S e t J | q # 1 x k # + 8 e i x V x H r s / ^ %.) I ",
"J 7 H S V ) 0 # 4 y c c x w S Y Y I J H  .y O 1 q ; 1 ; - e r q 3 q 5 * s Y H V H S ~ Y w H S V ( r # 1 s V c x q F I Y J H J  .y O ; w 1 1 ; - q r 0 4 w 8 % h Y H V H S ",
";.4 Y S ' j.8 O & * % % + 5 J I J J S ) ;.= % I  .+.;...; J / R %.| y.c - T J J J V v.%.4 Y S ' f.3 O * = % % + 4 J I J J S ) ;.= % P  ...@.+.; J / ~ %.| t.x - ~ Y J J S ",
"^ % m S ' w.= = k y - ; # 4 S I J J S ^ ;.- 4 P ) / ^ ' 8 x J R ' R :.S o h I Y P Y i.~ % c S } w.- & c r - - # 4 S L J J S ^ =.- 4 I / / ^ ' q x H R | R &.S o h I Y J Y ",
"e O - L Y ~ 1 q V V F z - @ s Y Y J H Q ' 5 x Y H S J / s 3 < z b x I k O # w s x b V r O - I I ~ 1 0 V V S h ; # s Y Y J H R [ 4 x Y S V J / s 5 ; h v x I k O # 0 r x x ",
"e = 1 y S | r o O # 6 0 ; # 1 H V H I ~ } 5 x Y H Y } ;.0 5 * - q e w - & % % * = * y r * 1 s S [ r o O # 6 8 ; # 1 H S S J ~ } 8 x Y H Y } %.0 8 = - q e 0 - & # % = = % ",
"# s S , z  .t 8 l h y h M * # w 5 x J S J 0 x Y H S &.v.; H | p.b.[ N.D . y x e 8 - * # s S 1 s  .r 8 k s s s m = # q 8 x I S H 0 x Y H S ;.v.; H | y.b.' S.H . r x t 8 = ",
"; h R H S ) s V ~ ' i.p.+.2 # # - 0 8 ; - - S Y J F R ' r J ^  .| H &.V # s s S V x s ; h R H V ) s b ~ ) p.p.%.2 # + - q 5 ; - < V Y J S ~ ' q H ~  .} H &.S # f y S V x ",
"* 8 S Y Y ' r * 3 S Q Y / q V ;.| ^ Y O.[ - h I J H Y / 8 c J V V V  .J o = 4 q - l s * 4 S Y Y ' r - 4 S Q Y / q S ;. .^ Y  .' - s I J H Y ` 4 c P V V S O.J o - 4 q ; k ",
"% ; V S ) &.= 3 S I c ~ y.y P +.+.' Y :.,.* ; Y I V +.N.# 4 I J H J G.J o 1 1 % = r 0 % ; V S / &.- 3 S I V Q y.y I +.O.( Y :.:.= - I I V  .S.* 4 I J H I L.H o 2 1 % = r ",
"^ + x J '  .3 b Y H S ;.;.4 b H S Y F Y &.< % H Y H R :.1 + x Y J H | h e [  .:.=.[ :.^ + x J '  .8 c Y H S %.4.8 c H S Y S Y :.4 # H Y H ~ &.1 + x Y J H [ h q |  .5.:.| ",
"' # V ~ ^ ~ w V Y H Q ' ) - w I I I I S ' t - 5 H I ^ :.1 * V Y J S / m - x ~  ./ P ,.' % V Q / R q S Q H Q ' ) - 5 L J I I S [ y - 4 H I ~ 5.1 * V Y J S / V - x ^ ../ J ",
"' w R P x ) 0 q Y Y I Y } r 5 V ~ H r q ) s x x H V ^ ..4 V ~ Y I J r.S O c Y J S k  .' w R H x ) 8 q Y Y J Y | r 4 V ~ H e w _ s x x S V ^ ..4 V ~ Y I I r.S O g Y J S x ",
"k < 5 - 3 c % # e V 3 e S 4 e x q * - q V ; * V y O q V @ - x x x z P s . r V b * * Y k - 8 = 4 b % % q c < e V 4 e x q * - e S ; * V s + e V + - x x x h J u . t V x * * ",
"y s 8 r c k e % 2 k q 6 0 k H s ; y V V s % 1 s 0 8 h s y y x b h x s * q y h h y 4 3 y y 8 r x k r % 4 s w 8 q x H s ; y V V s & ; s e 8 s s y y x c s x s * 0 s k h y 4 ",
"| &.+.r.| w.%.3 ..%.| 5.+.O.&.2.j.J. .;.v.- J p.:...' r.i. .y.r.' Y.+.- ( <.p.w./.R - | 4.+.r.| t.%.3 ..%.| w.%.O.&.:.z.J.| %.c.- J p.:. .' r.s.| y.p.' U.X.< ( 5.s.w.^.~ ",
"Y ~ Q J V +.;.q / ~ H ^ / Y V ^ 5.+.H H +.r V /  .| V Q Q S H J Y k 1 = s I ~ 2.!.Y - P ~ R J V  .=.w ^ Q H ~ ) Y V ^ 3.@.H H O.t B /  .| V Q Y S H J Y k 1 = s J ^ w.!.~ ",
"J J H H S | | - r J Y V H J H V S J H S ~ y c S H Y J H J ~ V y q # = # 4 S H J +.S @ H J H H V [ | ; e J Y S F I J V S J J V E s x S J Y J H H Q S y 0 # - # 4 S H J +.S ",
"5 Y Y I J ^ R # # < H ^ I H J Y J H S Q  .1 w a V Y Y V v z s - 4 V r @ h Y J V ) Q . 5 Y Y I J ~ Q % + < H ^ I H J Y J H S R { 1 q t S Y Y V x f k 1 1 S r # h Q J V ) Q ",
"- w S Q c e x = * * 1 x Y Y I S S J S  .p.< o # ; 4 8 # . # @ . = = . 4 H Y Y S y./ . * e S Q V e x = = * ; x Y Y J S S I S  .p.1 o % ; 3 8 # . # # . = = . 5 H Y I S p.( ",
"x 3 1 y 4 r ~ * r H 8 # r Y V 3 4 S I O.;.< y G S H b J ' 5 8 Q Y J V q Y Y b V ;.Y % c 3 < y 5 t ~ % r J 8 # r Y V 3 4 V L  .;.1 r G S H V J _ 4 5 R Y J S e Y I b V :.Y ",
"R I x ; s ' ' * 4 s c r + 4 e e s S S S Y 4 D ' +.3.~ ' R.m e w.4.w.g.8 x e 3 V | S 4 R J x - y ' | % 1 s V r + 4 r r s V S Z Y 8 S ) +.w.~ ' Y.m e p.4.p.j.4 c e 4 V | H ",
"Y J Y F S ) :.* @ 1 3 * * # 1 r e 8 3 4 * < V J H S H V ^ s r J S Y ' * - 5 h b P s w Y J Y H S ) -.= @ 1 4 * * # 1 e q 4 3 3 - ; V J H S H V ^ g e I S Y ' % ; 0 s V J h ",
"Y J J I S | | O e /  .+.p.S ; / ~ ~ +.%. .% s ^ H J S J J.x y Y V %.%.# # = ; = % # s Y I J Y H | | O e /  .+.s.V - / ~ ~  .%...% s ^ J H F J J.b r Y V ;.%.# # = ; = * # ",
"Y J J J S +.%.+ h ^  .' =.H - R ^ /  . .5.< * F Q Y J ' H.x 1 J S p.+.+ ; h & = = # h Y J J J S O.;.+ s ^  .' -.H - R ^ /  .| 4.< * S ~ Y J ' J.x - I S 0. .@ 1 k = = = # ",
"S Y I J S }  .1 S I S b ~ S - e h S V V I 8 O - s b S S H 4 o s Q ^ ~ # s H b c r # 4 S Y I J S '  .4 V I S b ~ S - e h V V V I 8 O - s b S F H 4 o s Y ^ ^ # s H b c e # ",
"s I S J H ' ) q J J H J  .I * 4 # 4 q e 4 = = # # = ; - h ; # 4 V ~ } * * % 8 z r * # y Y S J H ' / q J J H H  .W * 3 @ 4 q e 5 = = # # - = ; f < # 4 V ~ ' & * * 8 l t * ",
"; s r H J ~ ~ w H I H J T.~ * / | y.+. .&.; # h h 4 * * = % V x * R  .= 4 0 0 4 y e # - s q H J ~ ~ q H I H J U.Q % ^ [ r.+. .&.; % h s 3 = = * * V x - R ..- 4 9 0 4 y e ",
"# + - 4 4 - - e J I H S :.A 3 ~ ' i.[ ( w.1 ; z z V c s 8 = V Y x R ` 8 Y ` | 5.p.Y o + + - 4 3 - - e H J J S 4.J 4 ^ | s.[ ( w.1 ; z h B x h 8 - n I v Q ! 6 Y ) | w.s.Y ",
"^  .' ( R ..Y 8 H I J H R v 4 J H V S V / e % 4 x y y Z h % s Y I ^ / e , 5 Y ^ ' V < ! ..' / Q  .Y 8 H I J H Y c 8 Y H V S V ` r % 5 x y y S s % h Y J ^ / r , 5 Y ^ ' S ",
" .5.w.' ' J.| # z Y H S J.~ X V Y H V | S.1 O # + . O 1 o O z I S  .' # 8 V J x %.Q 3 | 5.5.} ' F. .# x Y H S J.Q O V Y H V } v.4 o # + . O ; O O z J S O.[ + 8 V J x +.! ",
"J V Y Y b ) +.O r R J S r.^ . 8 H I S / ..- s J Y ~ Y F R 8 1 H J ;.' * V R H J N.Q - H V Y Y b / ..O e R J S r.! . 5 H I S /  .- h H L ^ Y S R 0 4 H J -.' * V Q H J N.R ",
"b Y H I H / %.; - z Y H  .Q . 4 H I J V J y z P ;.w.' ) B.x # V ^  .Y e Y J S ^ +.S + V Y H J H / %.1 - f Y H | Q . 3 H I J V J a x J ;.r.) / B.x # S ^  .Y r Y I S ^ O.V ",
"e I ~ S 4 c ..y x x J V ;.J * Y Y I H / %.4 - V J I S b 5.c s / V J _ * x ~ Y H } L # e I ~ S 3 x %.y x x J V ;.J = Y Y I J / o.4 - V J I V b 5.x t / V H _ = x ~ Y H ' L ",
"c F s 8 4 S Q % s Y e * J x % c J S S J ~ - - H J V , e ~ h w s 8 c Y @ - b S w I m < b H s 4 1 S ^ # y Y e * J x # x J S S J Q * - H J S ; e ~ s w s 5 x Y # - b S w J S ",
"4 1 O % 8 0 - O * 8 % # - * @ * 4 - - * % = % ; ; * + 1 - - * o = 8 % # % * % o - = - 5 4 O # 8 w * + * 4 % # * * # = 4 - - - % * * ; ; * @ 1 - - * o * 4 % * % * # O - - ",
"J - ' ] R V Q  .R Y ../ ( g.g t Q ' ( | | * c ~ ^ ' ' K | 4 h  .L R ' Q ~ ' [ +.[ J ;.J - ' | R V R  .~ Y %./ / j.k y Q ' / | | - x ~ / ` ' Y  .8 h  .L R ' Q ~ ' | +.' H ",
";.8  .:.&.~ R @.^ Y ' ^ ' ) q 7 R  .0.R.P.4 x ( O. .( R L.h V 5.Y ' %.| Y ^ N.L.O.H s.%.3 O.:.:.E R @.^ Y ' / ' / 0 w Q  .w.R.I.4 c / ..| / ~ I.k c &.Y ' ;.| Y ( N.J.| H ",
"' 0 H H Q Y H H Y Q s k = o % % y S J [  .* r Q S S V Y r.c * V ~ S V Y Y S V J H V / _ 7 H H Q Y H S Y Q r h * o % % s S J ' { * e Q S S V I w.c * V ~ H V Y Y S V J H S ",
"R ; h x I Y I V x c r * h x % - V Y H V ) 8 # V Y J P I | h o - x ~ Y H H J J H H S | R ; s s Y Y I V x c r * s x * = V Y H V ( 8 # S Q J J I [ h O * x R Y H H J I H H S ",
"' . O - 4 r 8 . o * o o 6 + O x Y I H ^ w.8 + 3 S Q Y z s 8 # @ # h J Y J Y I I H J f.' . + - 8 r 8 . O * O O q + O x I I H ^ w.8 O 4 V Y Y h s 8 # @ # h J Y J J J I H H ",
"^ % V S A S V ~ c % c J V V e x ~ J V ^ %.- 4 t - s x # M h # V b # * G ~ h - s J Q z./ % V S V S V Q x * c H V V e x ~ J V ^ %.; 4 e - s x # V h @ V V # % G ~ h - s J ~ ",
"H q | [ j.:.( Y.@.* ' N. .W.J 7 S 5 k I / 8 x R x 1 < c | c + s S z * ; h q 5 s J F ) H e | | g.:.( Y.+.= ' N.O.R.J w S 0 k Y ! 5 h R x 4 3 x  .c + s V h % ; s w 6 s I S ",
"= s H H H H V J F 4 H J x +.V # 8 3 b H P 8 b Y Y S V H ;.H . # 1 ; % o % e r e 8 8 3 * s H D H S V J F 4 H J x %.V + 8 4 B H J 5 V Y Y S V F 4.D . # 1 ; % o # e r e 8 8 ",
"J * J Y H J V +.} 4 J H H s.V . * ; : = * - V Y J I J J :.k . c ' } | ;.q h / Y ' '  .J * J Y H J V +.} 4 I H H g.S o * ; 1 = = - V Y J J J J 5.k . c ' } | %.w g / Q ' ' ",
"[ o x Y Y J J j. .* S J R B.k . 8 0 + & @ ; S Y J J S Y N.h O H  .;.[ s.k x } ) %.| p.[ o x Y Y J J j. .* Z J R J.c o 9 9 @ & + ; S Y J J S Y m.h o A { ;.| f.x x } ) ;. .",
"~ + % h V V H Y x + ; H I  .h % H H x s ; # s Y Y I H H 5.k 4 J H V x ' V 5 s H J V ' ^ + % h V S H Y x O < H I  .s % G F x s ; # s Y Y J H H :.x 4 J H V x ( V 8 s H J V ",
"; = # # # 1 ; h s # # s H ..S + 1 ; x x r @ - H Y J J J  .y s Q H I J ;.S # o % < 3 4 ; & % % % 1 ; h s # # s H ..V O < - x x q @ - S I J I J  .s s Y H I J ;.H % o # 1 3 ",
"M # < e 4 = # 1 1 8 c 4 s i.J o 1 = 1 e y - % s s x Y H ' s t Y H H ' L.x 4 S I ~ S Y m # 3 r 8 = # 1 1 4 c 1 s p.G o 1 - 1 w y = * a s c Y H ' h a Y H H ) L.c 4 S I ^ S ",
"%.O t x c V s 5 # q ~ V h +.b h ..' ;.r...< O o # 2 8 4 4 * c Y J S Y N.x c  .j.L.) N.%.+ s x c b h 4 # q ~ S z +.V h  .' &.r...4 O o # 1 4 4 3 - x Y J S Y c.c c  .p.H.) ",
"' @ 8 s h e V b ; 4 H Y S | H 4 4 V ' ) ^ 1 s ) ^ ) ~ Y [ w s Y J J V / c k J H H V / ' + 4 s k e V V 1 4 H Y S | H 3 5 V ' / ^ 3 s ) ) ) ^ R } 0 s Y J J V / x s J H H V ",
"+.. O % o . * # . 1 S I I =.h + e S S S } 0 S p.p.5.} 5.L.s % H Y S R H.h ; Y J H V i.+.o O % o . % % . 4 V J J =.h + e S S S | e V p.s.5.| 0.L.s % H I S Q J.y < Y J H S ",
"R = H H H Y I Y m % x J Y p.s ; Y Y V  .j.4 c H S Y S F &.h O H Q S Y L.k o b I J S =.R - H H J Y Q Y m % c J Y p.y - Y Y V  .v.8 x H S J V S ;.h O A Q S Y L.k o V I J S ",
"J e R  .s.0.O.S.;.O s I ^ +.x c Q H H } } * 0 Y J H I H w.M O t S Y S s.c . h I I F R J 0 R | s.r.O.v.%.O s Y ^ +.x x Q H H ' } = 0 Y J H I H r.V O t F Y V p.N . s I J F ",
"^ - 5 V J S k ' / 1 Y Y V } b 5 Y Y Y J Q 5 - V Y Y V 6 ( V e s v H J z.k 4 Y I J H  .~ * 5 V J S x ' / 3 I Y V } M 8 Y I Y J Q 0 * b Y I V w ) S e y b H I z.k 4 Y I I F ",
"Q o c Q Y c 1 I J 5 V k 1 / c + x Y c x ^ t s S F y ; 0 | x * I J 4 r  .s 4 Y Y I H  .Q o c ~ Y x < Y J w b h 3 ' m + x Q b x ^ y s F H y 3 w | x * J J 3 y  .y < Y Y J H ",
"; O % 8 ; % * 4 - % # . % r * O + ; % # ; ; 1 4 % o * 4 8 # . * ; O O e = . - < 4 - - - O % 4 ; % % 8 - % # . % e - O + 1 % # 1 1 3 4 * O * 4 4 @ . * ; O o q & . - 3 4 - ",
"J _ ' Z [ ' - V Y ' ~ | R * V ^ Y Y Y ~ Y * S ^ H Q ~ J Q ^ / _ R U | < y } Q S V ^ / J ) } H ' ' ; V Y ' R  .Y % V / Y Y Y ^ I * V Q H ~ Q J Y ^ / ` ~ Y  .; t ' Y S S ! ",
"~ } ;.) -.R - S | :.N.(.f.8 R ..+.' / 5.g.> ) 4.~ +.5. .^ O.Y.Y.[ R L.c x d.r.5.Y ..;.~ | ;.( ;.Q - F  .:.B.(.j.5 Y +.+.| ^ :.g.; ) 5.~ +.5.| ^ +.U.U.[ R U.c x p.y.5.Y ..",
"Y S s M % O * ; c Z E 0.' & S I S S V ' O.8 s H J S H Y H V U R S b ` m r J J / J S H Y S s M % O * - c S ^ 0.' * V I S S V [ O.8 s H I S F Q H V Y Q S b ' M r I J / J S ",
"S D 0 % s h # 4 H I V Y ' @ q I Y J J ~ / ; % y J Y J S J J H S J F ' y r V V J Y I J H S 0 * s s @ 4 H Y b Y ' @ q Y Y J J ~ / 1 % r J Y H H J J H S H H ' u r V V J Y J ",
"% = O # w @ * V Y I S | +.# % s I Q L c s = # + < D Q I J Y Y I S Y c.c . * e s s - o # - O # 5 @ * V Y J S | @.# # s I ~ I c y * # O ; H R I J Y Y I S Y v.c . * e s s - ",
"8 ; x V x 0 4 I Q J S  . .# w 3 4 x h - c < 1 S 8 # y ^ Y y 8 c J ) N.h * S c c c V S 8 ; x V c 0 4 I Q J S  . .# 0 4 3 x s - x ; 1 V 5 # t ~ Y y 8 c J / S.s % V c c c V ",
"/ 1 :.N.s.0.4 F S q c ( / ; S H e - 8 V / ; 8 S S e % h c 4 < c Q Y %.y c  . .z.|  .^./ < :.N.p.w.4 F S w c ) / ; S H w - 4 V / ; 1 V S e % s c 4 3 b Q I O.t x O.| z.| | ",
"H 1 I Y J _ 2 w 5 e S ^ Y 0 J Y Y V V Y | 8 + + 4 - o . ; 0 5 0 4 3 - - c H J Y S x ` D 3 Y Y J / < w 0 q Z ^ Y 7 J Y L m S Y | 0 + + 3 ; o . 1 w w q 8 - - ; c H H Y S x ",
"Y 8 I S ~ ' = # 3 r q 5 ; 0 J I J I H ~ ..- % c S S L M = V V c S H H < s ~ H S J V +.L 5 I S R ' - # 1 r q 5 ; 0 J I J J J ~  .; % c S S Y m * c S c S D H ; h ~ H S J V ",
"' - Y V w.p.# # 2 # @ $ O r Y I J J V O.5.+ 3 ) r.5.s. .- ) | | j.;.J.s % Q Y Y J J R.' - Q V 5.p.# + 1 # @ * O r Y I J J V O.:.@ < ) r.5.p. .- ( [ | g.;.H.h * Y Y Y H I ",
"h O s J ) / # r S V s 4 % ; V Y J J H ^ } 1 s J J S Y J 4 p x J Y A | x . 8 V S H J ' x O s J ) / % r H V y 8 % - V Y J J F ^  .1 s I J S Y I 4 p c J R H [ l o 4 V S H I ",
"8 O * H Y Q ; 0 7 k V s 0 @ w Y Y J H ~ ^ 8 S Y S Y ^ ^ 1 * O - 4 4 w 2 % # % - q 4 x 8 + * H Y R ; q q g V h 8 + w I Y J H ~ ~ 8 S Y S I ^ ^ 4 % O ; 8 8 5 1 % # % ; r 5 ",
"1 q s - H  .2 o O O # - 1 % - V x S R ~ / 5 B Y S Y y.%.* c c V J S S 2 @ ; 8 1 # # 8 2 r s - F  .4 o + + % = 1 % - V x S Y ~ / 0 V Y S Y w.%.* x c V J V V 8 @ 1 8 ; # # ",
"% c Y y S / 8 S R Y / ' Y # @ + % 4 y e q 3 S Y J V 4.%., ) ;.P.N. .R.c + x x x f q ; # c Y s V / 4 S ~ Y ^ ' Y # O # % 4 y e w 4 V Y J V &.%.< / ;.P.H.[ R.c O g x c f e ",
"; s Y Y Y Q e g B ( 5.3.' = e h c V s x y 4 H Y J J Y G 5 H H J F x / j * e t V x V z ; s Y Y Y R t f V / :.w.' - t h c M s k y 3 H Y J J U H 5 H G J F x ' k * e t V x V ",
"o q H J ) ' - - s H S R ' 8 ) S.p.[ | H.%.% i Y J S O. .# b Y S S I b.V   O * o . 4 # o q H H ' ' * * r H S Q } 5 ) S.s.| ' H.%.* r Y J S  . .% c Y S S P m.S   + * o . 8 ",
"y - V S  ...# h Y I c ;.&.8 J Y R J S }  .% 4 ~ J V ;.:.+ 4 H I F Y p.y 8 S M S J H J r = V S  .@.# h Y I c ;.4.4 J Y Y P S |  .# 4 ~ I V ;.w.O 3 H I F Y p.y 8 G V S J D ",
"^ o V Y ' Q 5 J Y H J =./ * b J S J H ^ %.; - x J J /  .# # V Y J V R u z ` 5.z.r. .P.^ . b Y ' ~ 8 I Y F I =./ * b J S J H ^ ;.< * c I J ^  .# # V Y J S R s s ' :.c.w. .",
"R 3 Q Y Y Y 4 V Y J Q / ~ % 6 H Y Y V z ! h y 4 H I  .| * c I J J J  .c # e J L V x &.Y < Q Y Y Y 4 V Y J R ^ ^ * 5 H Y Y V l / h y 4 H J  .| * c I J J J  .c # w H K V b ",
"J w S h z ~ - 8 H Y x Y / 8 s H H s - x ' 4 s Y V e Y ~ = V Y P J I ;.s # H Y Y s e | J 5 V x z ~ - 5 H Y x Y ) w s H H s ; l ' 8 s Y V q Y ~ - V Y I J I ;.s # H Y Y h e ",
"r 4 = = e s = % 4 k * 0 s 8 x x ; = q x h # * c 8 + e h # - s s h s h 4 # r c s * ; x r 4 * * e s ; % 8 s * 0 h 8 x g ; - e x s # = c 8 + e s # - s s s s s 4 # e x s * ; "
};
